<svg width="6418" height="2786" viewBox="0 0 6418 2786" fill="none" xmlns="http://www.w3.org/2000/svg">
<circle cx="3175.04" cy="1393.04" r="1254.04" fill="#4A5568"/>
<path d="M3621.63 1511.01L3621.63 1317.41L3356.57 1230.36L3621.63 1511.01Z" fill="url(#paint0_linear_1672_40)"/>
<path d="M3316.29 1511.01L3621.63 1672.12L3621.63 1510.44L3316.29 1511.01Z" fill="url(#paint1_linear_1672_40)"/>
<path d="M3711.48 751.62C3711.48 796.012 3705.99 835.665 3695.02 870.58C3684.04 905.495 3669.08 936.419 3650.13 963.353C3631.67 989.789 3610.22 1012.48 3585.78 1031.44C3561.34 1050.39 3535.66 1066.1 3508.72 1078.57C3482.29 1090.54 3455.35 1099.27 3427.92 1104.76C3400.99 1110.24 3375.55 1112.99 3351.61 1112.99L3621.91 1318.02H3323.12L3051.59 1112.99H2833.87V918.463H3351.61C3376.05 916.468 3398.24 911.48 3418.19 903.499C3438.64 895.02 3456.1 883.797 3470.57 869.832C3485.53 855.866 3497 839.156 3504.98 819.704C3512.96 799.753 3516.95 777.058 3516.95 751.62V628.919C3516.95 617.946 3515.46 609.716 3512.46 604.23C3509.97 598.244 3506.48 594.005 3501.99 591.511C3498 588.518 3493.51 586.772 3488.52 586.273C3484.03 585.775 3479.79 585.525 3475.8 585.525H2833.87V1167.78V1204.91V1362.71V1520.5V1646.73V1691.81L2639.34 1864.19V1307.01V1260.6L2695.28 1112.99L2639.34 1026.7V952.443V531.042V489.011C2639.34 475.544 2641.84 462.825 2646.83 450.854C2651.81 438.883 2658.55 428.409 2667.03 419.431C2676 410.453 2686.48 403.47 2698.45 398.482C2710.42 393.494 2723.39 391 2737.35 391H3475.8C3519.2 391 3555.86 398.981 3585.78 414.942C3615.71 430.404 3639.9 450.106 3658.36 474.047C3677.31 497.49 3690.78 522.928 3698.76 550.361C3707.24 577.794 3711.48 603.481 3711.48 627.423V751.62Z" fill="#FE678B"/>
<path d="M2884.97 1002.37L2694.92 1115.3L2641.14 1256.96L2834.77 1115.3L2884.97 1002.37Z" fill="url(#paint2_linear_1672_40)"/>
<path d="M2639.34 1260.56L2834.27 1113.91V1691.24L2639.34 1863.89V1260.56Z" fill="url(#paint3_linear_1672_40)"/>
<path d="M2834.76 918.095L2639.35 1026.7V601.31L2834.76 472.618V918.095Z" fill="url(#paint4_linear_1672_40)"/>
<path d="M3379.33 391.836L3485.58 586.418H3060.12L2932.67 391.836L3379.33 391.836Z" fill="url(#paint5_linear_1672_40)"/>
<path d="M3352.22 1112.12L3355.93 1318.18H3621.4L3352.22 1112.12Z" fill="url(#paint6_linear_1672_40)"/>
<path d="M3622.42 1511.2L3461.82 1340.79L3316.3 1511.2L3622.42 1511.2Z" fill="url(#paint7_linear_1672_40)"/>
<path d="M3316.3 1698.11L3442.61 1577.26L3316.3 1511L3316.3 1698.11Z" fill="url(#paint8_linear_1672_40)"/>
<path d="M2694.92 1115.34L2884.96 1002.37L2834.83 918.114L2639.34 1027.48L2694.92 1115.34Z" fill="url(#paint9_linear_1672_40)"/>
<path d="M2709.51 1442.15L2917.31 1274.54V1769.57L2717.3 1949.54L2709.51 1442.15Z" fill="url(#paint10_linear_1672_40)"/>
<path d="M2831.66 1549.93L2999.79 1409.61V1835.78L2831.66 1999.9V1549.93Z" fill="url(#paint11_linear_1672_40)"/>
<path d="M2891.52 1678.91L3090.24 1555.09V2042.54L2891.52 2188.3V1678.91Z" fill="url(#paint12_linear_1672_40)"/>
<path d="M2990.35 1814.36L3189.07 1690.54V2177.99L2990.35 2323.76V1814.36Z" fill="url(#paint13_linear_1672_40)"/>
<path d="M3133.11 1912.09L3286.85 1804V2229.51L3133.11 2356.75V1912.09Z" fill="url(#paint14_linear_1672_40)"/>
<path d="M3257.58 1991.6L3400.34 1902.84V2252.26L3257.58 2356.75V1991.6Z" fill="url(#paint15_linear_1672_40)"/>
<path d="M3378.38 2071.11L3502.83 2001.67V2275.01L3378.38 2356.75V2071.11Z" fill="url(#paint16_linear_1672_40)"/>
<path d="M3469.91 2129.99L3579.72 2074.88V2291.86L3469.91 2356.74V2129.99Z" fill="url(#paint17_linear_1672_40)"/>
<path d="M3554.08 2233.06L3613.93 2203.02V2321.28L3554.08 2356.65V2233.06Z" fill="url(#paint18_linear_1672_40)"/>
<path d="M3605.34 2254.71L3656.2 2229.18V2329.69L3605.34 2359.74V2254.71Z" fill="url(#paint19_linear_1672_40)"/>
<path d="M3645.59 2292.45L3677.92 2276.23V2340.1L3645.59 2359.2V2292.45Z" fill="url(#paint20_linear_1672_40)"/>
<defs>
<linearGradient id="paint0_linear_1672_40" x1="3779.47" y1="1648.27" x2="3365.2" y2="1088.71" gradientUnits="userSpaceOnUse">
<stop offset="0.26826" stop-color="#A62846"/>
<stop offset="0.743707" stop-color="#FE67AF" stop-opacity="0.44"/>
</linearGradient>
<linearGradient id="paint1_linear_1672_40" x1="3166.31" y1="1583.99" x2="3711.09" y2="1463.07" gradientUnits="userSpaceOnUse">
<stop offset="0.0833333" stop-color="#FE678B"/>
<stop offset="1" stop-color="#76A4CE"/>
</linearGradient>
<linearGradient id="paint2_linear_1672_40" x1="2550.32" y1="1107.48" x2="3095.1" y2="986.563" gradientUnits="userSpaceOnUse">
<stop offset="0.0833333" stop-color="#EB6B89"/>
<stop offset="0.718538" stop-color="#76A4CE" stop-opacity="0.65"/>
</linearGradient>
<linearGradient id="paint3_linear_1672_40" x1="2736.8" y1="1113.91" x2="2736.8" y2="1863.89" gradientUnits="userSpaceOnUse">
<stop stop-color="#A62846"/>
<stop offset="1" stop-color="#FE678B" stop-opacity="0"/>
</linearGradient>
<linearGradient id="paint4_linear_1672_40" x1="2735.89" y1="1026.7" x2="2735.89" y2="473.498" gradientUnits="userSpaceOnUse">
<stop stop-color="#603B44"/>
<stop offset="1" stop-color="#FE678B" stop-opacity="0"/>
</linearGradient>
<linearGradient id="paint5_linear_1672_40" x1="3485.88" y1="488.368" x2="2932.67" y2="488.368" gradientUnits="userSpaceOnUse">
<stop stop-color="#74293B"/>
<stop offset="1" stop-color="#FE678B" stop-opacity="0"/>
</linearGradient>
<linearGradient id="paint6_linear_1672_40" x1="3123.88" y1="1043.43" x2="3677.09" y2="1422.13" gradientUnits="userSpaceOnUse">
<stop offset="0.26826" stop-color="#A62846"/>
<stop offset="1" stop-color="#FE678B" stop-opacity="0"/>
</linearGradient>
<linearGradient id="paint7_linear_1672_40" x1="3802.8" y1="1427.78" x2="3106.7" y2="1414.53" gradientUnits="userSpaceOnUse">
<stop offset="0.0718" stop-color="#8483BA"/>
<stop offset="1" stop-color="#C52E49"/>
</linearGradient>
<linearGradient id="paint8_linear_1672_40" x1="3411.77" y1="1800.92" x2="3315.7" y2="1382.84" gradientUnits="userSpaceOnUse">
<stop offset="0.0718" stop-color="#8483BA"/>
<stop offset="1" stop-color="#C52E49"/>
</linearGradient>
<linearGradient id="paint9_linear_1672_40" x1="2803.99" y1="1272.82" x2="2707.92" y2="854.752" gradientUnits="userSpaceOnUse">
<stop offset="0.260417" stop-color="#8483BA"/>
<stop offset="0.917566" stop-color="#C52E49" stop-opacity="0.62"/>
</linearGradient>
<linearGradient id="paint10_linear_1672_40" x1="2813.41" y1="1274.54" x2="2813.41" y2="1949.54" gradientUnits="userSpaceOnUse">
<stop stop-color="#C53155"/>
<stop offset="1" stop-color="#44B6C6" stop-opacity="0.97"/>
</linearGradient>
<linearGradient id="paint11_linear_1672_40" x1="2915.73" y1="1464.18" x2="2915.73" y2="1999.9" gradientUnits="userSpaceOnUse">
<stop stop-color="#C53155"/>
<stop offset="1" stop-color="#44B6C6" stop-opacity="0.97"/>
</linearGradient>
<linearGradient id="paint12_linear_1672_40" x1="2990.88" y1="1555.09" x2="2990.88" y2="2188.3" gradientUnits="userSpaceOnUse">
<stop stop-color="#C53155"/>
<stop offset="1" stop-color="#44B6C6" stop-opacity="0.97"/>
</linearGradient>
<linearGradient id="paint13_linear_1672_40" x1="3089.71" y1="1690.54" x2="3089.71" y2="2323.76" gradientUnits="userSpaceOnUse">
<stop stop-color="#C53155"/>
<stop offset="1" stop-color="#44B6C6" stop-opacity="0.97"/>
</linearGradient>
<linearGradient id="paint14_linear_1672_40" x1="3209.98" y1="1804" x2="3209.98" y2="2356.75" gradientUnits="userSpaceOnUse">
<stop stop-color="#C53155"/>
<stop offset="1" stop-color="#44B6C6" stop-opacity="0.97"/>
</linearGradient>
<linearGradient id="paint15_linear_1672_40" x1="3328.96" y1="1902.84" x2="3328.96" y2="2356.75" gradientUnits="userSpaceOnUse">
<stop stop-color="#C53155"/>
<stop offset="1" stop-color="#44B6C6" stop-opacity="0.97"/>
</linearGradient>
<linearGradient id="paint16_linear_1672_40" x1="3440.6" y1="2001.67" x2="3440.6" y2="2356.75" gradientUnits="userSpaceOnUse">
<stop stop-color="#C53155"/>
<stop offset="1" stop-color="#44B6C6" stop-opacity="0.97"/>
</linearGradient>
<linearGradient id="paint17_linear_1672_40" x1="3524.82" y1="2074.88" x2="3524.82" y2="2356.74" gradientUnits="userSpaceOnUse">
<stop stop-color="#C53155"/>
<stop offset="1" stop-color="#44B6C6" stop-opacity="0.97"/>
</linearGradient>
<linearGradient id="paint18_linear_1672_40" x1="3584" y1="2203.02" x2="3584" y2="2356.65" gradientUnits="userSpaceOnUse">
<stop stop-color="#C53155"/>
<stop offset="1" stop-color="#44B6C6" stop-opacity="0.97"/>
</linearGradient>
<linearGradient id="paint19_linear_1672_40" x1="3630.77" y1="2229.18" x2="3630.77" y2="2359.74" gradientUnits="userSpaceOnUse">
<stop stop-color="#C53155"/>
<stop offset="1" stop-color="#44B6C6" stop-opacity="0.97"/>
</linearGradient>
<linearGradient id="paint20_linear_1672_40" x1="3661.76" y1="2276.23" x2="3661.76" y2="2359.2" gradientUnits="userSpaceOnUse">
<stop stop-color="#C53155"/>
<stop offset="1" stop-color="#44B6C6" stop-opacity="0.97"/>
</linearGradient>
</defs>
</svg>
