<svg width="6418" height="1769" viewBox="0 0 6418 1769" fill="none" xmlns="http://www.w3.org/2000/svg">
<g clip-path="url(#clip0_1672_40)">
<rect x="-151.609" y="42.8672" width="7012.02" height="3611.56" fill="#2A2E37"/>
<rect x="4553.51" y="7607.66" width="238.629" height="10488.7" transform="rotate(165.54 4553.51 7607.66)" fill="url(#paint0_linear_1672_40)" stroke="#FFFCFC" stroke-width="9.17804"/>
<rect x="2175.85" y="-2727" width="238.629" height="10488.7" transform="rotate(-11.4138 2175.85 -2727)" fill="url(#paint1_linear_1672_40)" stroke="#FFFCFC" stroke-width="9.17804"/>
<rect x="2902.86" y="8029.14" width="238.629" height="10488.7" transform="rotate(173.885 2902.86 8029.14)" fill="url(#paint2_linear_1672_40)" stroke="#FFFCFC" stroke-width="9.17804"/>
<rect x="2902.86" y="8029.18" width="238.629" height="10488.7" transform="rotate(173.885 2902.86 8029.18)" fill="url(#paint3_linear_1672_40)" stroke="#FFFCFC" stroke-width="9.17804"/>
<rect x="12132.5" y="2617.39" width="238.629" height="15073" transform="rotate(94.644 12132.5 2617.39)" fill="url(#paint4_linear_1672_40)" stroke="#FFFCFC" stroke-width="9.17804"/>
<rect x="11537.7" y="799.716" width="238.629" height="15073" transform="rotate(87.8877 11537.7 799.716)" fill="url(#paint5_linear_1672_40)" stroke="#FFFCFC" stroke-width="9.17804"/>
<rect x="-2884.1" y="4364.94" width="238.629" height="15073" transform="rotate(-105.093 -2884.1 4364.94)" fill="url(#paint6_linear_1672_40)" stroke="#FFFCFC" stroke-width="9.17804"/>
<rect x="-3600" y="2534.21" width="238.629" height="15073" transform="rotate(-99.6703 -3600 2534.21)" fill="url(#paint7_linear_1672_40)" stroke="#FFFCFC" stroke-width="9.17804"/>
<rect x="6467.09" y="6858.19" width="238.629" height="10488.7" transform="rotate(160.689 6467.09 6858.19)" fill="url(#paint8_linear_1672_40)" stroke="#FFFCFC" stroke-width="9.17804"/>
<rect x="8448.81" y="6144.4" width="238.629" height="10488.7" transform="rotate(159.497 8448.81 6144.4)" fill="url(#paint9_linear_1672_40)" stroke="#FFFCFC" stroke-width="9.17804"/>
<rect x="6132.58" y="-1690.09" width="238.629" height="10488.7" transform="rotate(-36.0602 6132.58 -1690.09)" fill="url(#paint10_linear_1672_40)" stroke="#FFFCFC" stroke-width="9.17804"/>
<rect x="384.963" y="7891.25" width="238.629" height="10488.7" transform="rotate(-161.195 384.963 7891.25)" fill="url(#paint11_linear_1672_40)" stroke="#FFFCFC" stroke-width="9.17804"/>
<rect x="5099.44" y="-2667.2" width="238.629" height="10488.7" transform="rotate(5.66224 5099.44 -2667.2)" fill="url(#paint12_linear_1672_40)" stroke="#FFFCFC" stroke-width="9.17804"/>
<rect x="4066.08" y="-996.803" width="238.629" height="10488.7" transform="rotate(-4.80115 4066.08 -996.803)" fill="url(#paint13_linear_1672_40)" stroke="#FFFCFC" stroke-width="9.17804"/>
<rect x="1913.82" y="-1166.6" width="238.629" height="10488.7" transform="rotate(-4.80115 1913.82 -1166.6)" fill="url(#paint14_linear_1672_40)" stroke="#FFFCFC" stroke-width="9.17804"/>
<rect x="6204.15" y="7504.89" width="238.629" height="10488.7" transform="rotate(175.838 6204.15 7504.89)" fill="url(#paint15_linear_1672_40)" stroke="#FFFCFC" stroke-width="9.17804"/>
<rect x="7327.42" y="7230.05" width="238.629" height="10488.7" transform="rotate(176.253 7327.42 7230.05)" fill="url(#paint16_linear_1672_40)" stroke="#FFFCFC" stroke-width="9.17804"/>
<rect x="7586.51" y="-3411.71" width="238.629" height="10488.7" transform="rotate(13.7954 7586.51 -3411.71)" fill="url(#paint17_linear_1672_40)" stroke="#FFFCFC" stroke-width="9.17804"/>
<rect x="-1881.19" y="-4205.12" width="238.629" height="16020.7" transform="rotate(-39.4993 -1881.19 -4205.12)" fill="url(#paint18_linear_1672_40)" stroke="#FFFCFC" stroke-width="9.17804"/>
<rect x="7487.64" y="8230.87" width="238.629" height="14202.8" transform="rotate(150.967 7487.64 8230.87)" fill="url(#paint19_linear_1672_40)" stroke="#FFFCFC" stroke-width="9.17804"/>
<rect x="-1778.45" y="8744.08" width="238.629" height="15073" transform="rotate(-155.865 -1778.45 8744.08)" fill="url(#paint20_linear_1672_40)" stroke="#FFFCFC" stroke-width="9.17804"/>
<rect x="6410.32" y="-5018.03" width="238.629" height="15073" transform="rotate(24.1637 6410.32 -5018.03)" fill="url(#paint21_linear_1672_40)" stroke="#FFFCFC" stroke-width="9.17804"/>
<rect x="5202.18" y="-5266.08" width="238.629" height="15073" transform="rotate(24.1637 5202.18 -5266.08)" fill="url(#paint22_linear_1672_40)" stroke="#FFFCFC" stroke-width="9.17804"/>
<rect x="7740.12" y="-5310.91" width="238.629" height="15073" transform="rotate(24.1637 7740.12 -5310.91)" fill="url(#paint23_linear_1672_40)" stroke="#FFFCFC" stroke-width="9.17804"/>
<rect x="1731.73" y="9754.63" width="238.629" height="15073" transform="rotate(-153.95 1731.73 9754.63)" fill="url(#paint24_linear_1672_40)" stroke="#FFFCFC" stroke-width="9.17804"/>
<rect x="990.404" y="8667.04" width="238.629" height="15073" transform="rotate(-164.917 990.404 8667.04)" fill="url(#paint25_linear_1672_40)" stroke="#FFFCFC" stroke-width="9.17804"/>
<rect x="4744.79" y="-4817.78" width="238.629" height="15073" transform="rotate(32.3916 4744.79 -4817.78)" fill="url(#paint26_linear_1672_40)" stroke="#FFFCFC" stroke-width="9.17804"/>
<rect x="6982.24" y="-4099.71" width="238.629" height="15073" transform="rotate(28.2827 6982.24 -4099.71)" fill="url(#paint27_linear_1672_40)" stroke="#FFFCFC" stroke-width="9.17804"/>
<rect x="876.29" y="9518.47" width="238.629" height="15073" transform="rotate(-162.061 876.29 9518.47)" fill="url(#paint28_linear_1672_40)" stroke="#FFFCFC" stroke-width="9.17804"/>
<rect x="2473.27" y="10068.5" width="238.629" height="15073" transform="rotate(-165.286 2473.27 10068.5)" fill="url(#paint29_linear_1672_40)" stroke="#FFFCFC" stroke-width="9.17804"/>
<rect x="-1463.6" y="9189.78" width="238.629" height="15073" transform="rotate(-165.286 -1463.6 9189.78)" fill="url(#paint30_linear_1672_40)" stroke="#FFFCFC" stroke-width="9.17804"/>
<rect x="7306.25" y="1490.72" width="238.629" height="10488.7" transform="rotate(90.2089 7306.25 1490.72)" fill="url(#paint31_linear_1672_40)" stroke="#FFFCFC" stroke-width="9.17804"/>
<rect x="7482.79" y="4005.68" width="238.629" height="10488.7" transform="rotate(114.557 7482.79 4005.68)" fill="url(#paint32_linear_1672_40)" stroke="#FFFCFC" stroke-width="9.17804"/>
<rect x="-2572.72" y="1612.45" width="238.629" height="10488.7" transform="rotate(-75.2815 -2572.72 1612.45)" fill="url(#paint33_linear_1672_40)" stroke="#FFFCFC" stroke-width="9.17804"/>
<rect x="5257.64" y="-4513.38" width="238.629" height="13682.5" transform="rotate(22.4642 5257.64 -4513.38)" fill="url(#paint34_linear_1672_40)" stroke="#FFFCFC" stroke-width="9.17804"/>
<rect x="4618.6" y="8583.4" width="238.629" height="14648.5" transform="rotate(168.797 4618.6 8583.4)" fill="url(#paint35_linear_1672_40)" stroke="#FFFCFC" stroke-width="9.17804"/>
<rect x="2931.69" y="-5740.79" width="238.629" height="13682.5" transform="rotate(12.1439 2931.69 -5740.79)" fill="url(#paint36_linear_1672_40)" stroke="#FFFCFC" stroke-width="9.17804"/>
<rect x="283.34" y="8113.44" width="238.629" height="16020.7" transform="rotate(-161.336 283.34 8113.44)" fill="url(#paint37_linear_1672_40)" stroke="#FFFCFC" stroke-width="9.17804"/>
<rect x="-5910.58" y="5662.62" width="238.629" height="16020.7" transform="rotate(-109.98 -5910.58 5662.62)" fill="url(#paint38_linear_1672_40)" stroke="#FFFCFC" stroke-width="9.17804"/>
<rect x="-1039.78" y="-3164.03" width="238.629" height="15073" transform="rotate(-16.5856 -1039.78 -3164.03)" fill="url(#paint39_linear_1672_40)" stroke="#FFFCFC" stroke-width="9.17804"/>
<rect x="1117.43" y="-4193.98" width="238.629" height="15073" transform="rotate(-9.11293 1117.43 -4193.98)" fill="url(#paint40_linear_1672_40)" stroke="#FFFCFC" stroke-width="9.17804"/>
<rect x="5612.84" y="10539.9" width="238.629" height="15073" transform="rotate(164.662 5612.84 10539.9)" fill="url(#paint41_linear_1672_40)" stroke="#FFFCFC" stroke-width="9.17804"/>
<rect x="6385.82" y="9976.32" width="238.629" height="15073" transform="rotate(151.15 6385.82 9976.32)" fill="url(#paint42_linear_1672_40)" stroke="#FFFCFC" stroke-width="9.17804"/>
<rect x="6583.81" y="300.428" width="238.629" height="10488.7" transform="rotate(56.9323 6583.81 300.428)" fill="url(#paint43_linear_1672_40)" stroke="#FFFCFC" stroke-width="9.17804"/>
<rect x="-474.821" y="4500.56" width="238.629" height="10488.7" transform="rotate(-108.558 -474.821 4500.56)" fill="url(#paint44_linear_1672_40)" stroke="#FFFCFC" stroke-width="9.17804"/>
<rect x="-3654.57" y="-3540.42" width="238.629" height="16020.7" transform="rotate(-47.0882 -3654.57 -3540.42)" fill="url(#paint45_linear_1672_40)" stroke="#FFFCFC" stroke-width="9.17804"/>
<rect x="6106.76" y="-411.253" width="238.629" height="10488.7" transform="rotate(72.5379 6106.76 -411.253)" fill="url(#paint46_linear_1672_40)" stroke="#FFFCFC" stroke-width="9.17804"/>
<rect x="10762.4" y="2532.05" width="238.629" height="15073" transform="rotate(96.0645 10762.4 2532.05)" fill="url(#paint47_linear_1672_40)" stroke="#FFFCFC" stroke-width="9.17804"/>
<rect x="10194.1" y="2236.58" width="238.629" height="15073" transform="rotate(104.292 10194.1 2236.58)" fill="url(#paint48_linear_1672_40)" stroke="#FFFCFC" stroke-width="9.17804"/>
<rect x="10212.9" y="700.191" width="238.629" height="15073" transform="rotate(89.3082 10212.9 700.191)" fill="url(#paint49_linear_1672_40)" stroke="#FFFCFC" stroke-width="9.17804"/>
<rect x="-4963.25" y="2058.92" width="238.629" height="15073" transform="rotate(-98.2498 -4963.25 2058.92)" fill="url(#paint50_linear_1672_40)" stroke="#FFFCFC" stroke-width="9.17804"/>
<rect x="2657.93" y="7580.21" width="238.629" height="10488.7" transform="rotate(-173.542 2657.93 7580.21)" fill="url(#paint51_linear_1672_40)" stroke="#FFFCFC" stroke-width="9.17804"/>
<rect x="11915.8" y="4615.81" width="238.629" height="16020.7" transform="rotate(105.419 11915.8 4615.81)" fill="url(#paint52_linear_1672_40)" stroke="#FFFCFC" stroke-width="9.17804"/>
<rect x="-2523.73" y="580.935" width="238.629" height="13289.4" transform="rotate(-88.1724 -2523.73 580.935)" fill="url(#paint53_linear_1672_40)" stroke="#FFFCFC" stroke-width="9.17804"/>
<rect x="-482.008" y="-673.023" width="11628.6" height="6585.24" fill="#1C2B30" fill-opacity="0.91"/>
<path d="M3560.95 1201.26L3560.95 1022.31L3315.94 941.844L3560.95 1201.26Z" fill="url(#paint54_linear_1672_40)"/>
<path d="M3278.71 1201.26L3560.94 1350.18L3560.94 1200.73L3278.71 1201.26Z" fill="url(#paint55_linear_1672_40)"/>
<path d="M3644 499.332C3644 540.365 3638.93 577.018 3628.78 609.291C3618.64 641.563 3604.81 670.148 3587.29 695.044C3570.23 719.479 3550.41 740.457 3527.82 757.976C3505.23 775.496 3481.48 790.019 3456.59 801.545C3432.15 812.61 3407.25 820.678 3381.9 825.749C3357 830.821 3333.49 833.356 3311.36 833.356L3561.21 1022.87H3285.02L3034.04 833.356H2832.8V653.551H3311.36C3333.95 651.706 3354.47 647.096 3372.91 639.719C3391.81 631.882 3407.95 621.508 3421.32 608.599C3435.15 595.69 3445.75 580.245 3453.13 562.264C3460.5 543.823 3464.19 522.845 3464.19 499.332V385.916C3464.19 375.774 3462.81 368.166 3460.04 363.095C3457.74 357.562 3454.51 353.644 3450.36 351.338C3446.67 348.572 3442.52 346.958 3437.91 346.497C3433.76 346.036 3429.85 345.806 3426.16 345.806H2832.8V884.006V918.325V1064.18V1210.03V1326.71V1368.38L2652.99 1527.71V1012.7V969.802L2704.69 833.356L2652.99 753.596V684.959V295.445V256.594C2652.99 244.146 2655.3 232.39 2659.91 221.325C2664.52 210.26 2670.74 200.578 2678.58 192.279C2686.88 183.981 2696.56 177.526 2707.63 172.916C2718.69 168.305 2730.68 166 2743.59 166H3426.16C3466.27 166 3500.15 173.377 3527.82 188.13C3555.48 202.422 3577.84 220.633 3594.9 242.763C3612.42 264.432 3624.87 287.945 3632.24 313.303C3640.08 338.66 3644 362.403 3644 384.533V499.332Z" fill="#FE678B"/>
<path d="M2880.03 731.11L2704.36 835.499L2654.65 966.443L2833.62 835.499L2880.03 731.11Z" fill="url(#paint56_linear_1672_40)"/>
<path d="M2652.99 969.761L2833.16 834.203V1367.86L2652.99 1527.44V969.761Z" fill="url(#paint57_linear_1672_40)"/>
<path d="M2833.62 653.211L2653 753.602V360.398L2833.62 241.443V653.211Z" fill="url(#paint58_linear_1672_40)"/>
<path d="M3336.98 166.773L3435.19 346.632L3041.93 346.632L2924.12 166.773L3336.98 166.773Z" fill="url(#paint59_linear_1672_40)"/>
<path d="M3311.92 832.555L3315.35 1023.02H3560.73L3311.92 832.555Z" fill="url(#paint60_linear_1672_40)"/>
<path d="M3561.68 1201.45L3413.23 1043.93L3278.72 1201.44L3561.68 1201.45Z" fill="url(#paint61_linear_1672_40)"/>
<path d="M3278.72 1374.2L3395.48 1262.49L3278.72 1201.25L3278.72 1374.2Z" fill="url(#paint62_linear_1672_40)"/>
<path d="M2704.35 835.529L2880.02 731.112L2833.68 653.228L2652.98 754.317L2704.35 835.529Z" fill="url(#paint63_linear_1672_40)"/>
<path d="M2717.84 1137.61L2909.93 982.688V1440.26L2725.05 1606.61L2717.84 1137.61Z" fill="url(#paint64_linear_1672_40)"/>
<path d="M2830.76 1237.25L2986.16 1107.54V1501.46L2830.76 1653.17V1237.25Z" fill="url(#paint65_linear_1672_40)"/>
</g>
<defs>
<linearGradient id="paint0_linear_1672_40" x1="4683.01" y1="7610.95" x2="4683.01" y2="18108.8" gradientUnits="userSpaceOnUse">
<stop offset="0.135417" stop-color="#CA3737" stop-opacity="0.37"/>
<stop offset="0.737959" stop-color="#EEA0A0" stop-opacity="0.15"/>
</linearGradient>
<linearGradient id="paint1_linear_1672_40" x1="2294.35" y1="-2730.59" x2="2294.35" y2="7767.27" gradientUnits="userSpaceOnUse">
<stop offset="0.135417" stop-color="#CA3737" stop-opacity="0.37"/>
<stop offset="0.737959" stop-color="#EEA0A0" stop-opacity="0.15"/>
</linearGradient>
<linearGradient id="paint2_linear_1672_40" x1="3031.82" y1="8033.21" x2="3031.82" y2="18531.1" gradientUnits="userSpaceOnUse">
<stop offset="0.135417" stop-color="#CA3737" stop-opacity="0.37"/>
<stop offset="0.737959" stop-color="#EEA0A0" stop-opacity="0.15"/>
</linearGradient>
<linearGradient id="paint3_linear_1672_40" x1="3031.82" y1="8033.25" x2="3031.82" y2="18531.1" gradientUnits="userSpaceOnUse">
<stop offset="0.135417" stop-color="#CA3737" stop-opacity="0.37"/>
<stop offset="0.737959" stop-color="#EEA0A0" stop-opacity="0.15"/>
</linearGradient>
<linearGradient id="paint4_linear_1672_40" x1="12261.3" y1="2613.19" x2="12261.3" y2="17695.4" gradientUnits="userSpaceOnUse">
<stop offset="0.135417" stop-color="#CA3737" stop-opacity="0.37"/>
<stop offset="0.737959" stop-color="#EEA0A0" stop-opacity="0.15"/>
</linearGradient>
<linearGradient id="paint5_linear_1672_40" x1="11666.1" y1="794.961" x2="11666.1" y2="15877.2" gradientUnits="userSpaceOnUse">
<stop offset="0.135417" stop-color="#CA3737" stop-opacity="0.37"/>
<stop offset="0.737959" stop-color="#EEA0A0" stop-opacity="0.15"/>
</linearGradient>
<linearGradient id="paint6_linear_1672_40" x1="-2763.43" y1="4370.57" x2="-2763.43" y2="19452.8" gradientUnits="userSpaceOnUse">
<stop offset="0.135417" stop-color="#CA3737" stop-opacity="0.37"/>
<stop offset="0.737959" stop-color="#EEA0A0" stop-opacity="0.15"/>
</linearGradient>
<linearGradient id="paint7_linear_1672_40" x1="-3479.85" y1="2539.5" x2="-3479.85" y2="17621.7" gradientUnits="userSpaceOnUse">
<stop offset="0.135417" stop-color="#CA3737" stop-opacity="0.37"/>
<stop offset="0.737959" stop-color="#EEA0A0" stop-opacity="0.15"/>
</linearGradient>
<linearGradient id="paint8_linear_1672_40" x1="6596.84" y1="6861" x2="6596.84" y2="17358.9" gradientUnits="userSpaceOnUse">
<stop offset="0.135417" stop-color="#CA3737" stop-opacity="0.37"/>
<stop offset="0.737959" stop-color="#EEA0A0" stop-opacity="0.15"/>
</linearGradient>
<linearGradient id="paint9_linear_1672_40" x1="8578.61" y1="6147.09" x2="8578.61" y2="16645" gradientUnits="userSpaceOnUse">
<stop offset="0.135417" stop-color="#CA3737" stop-opacity="0.37"/>
<stop offset="0.737959" stop-color="#EEA0A0" stop-opacity="0.15"/>
</linearGradient>
<linearGradient id="paint10_linear_1672_40" x1="6250.08" y1="-1691.1" x2="6250.08" y2="8806.76" gradientUnits="userSpaceOnUse">
<stop offset="0.135417" stop-color="#CA3737" stop-opacity="0.37"/>
<stop offset="0.737959" stop-color="#EEA0A0" stop-opacity="0.15"/>
</linearGradient>
<linearGradient id="paint11_linear_1672_40" x1="511.732" y1="7897.08" x2="511.732" y2="18394.9" gradientUnits="userSpaceOnUse">
<stop offset="0.135417" stop-color="#CA3737" stop-opacity="0.37"/>
<stop offset="0.737959" stop-color="#EEA0A0" stop-opacity="0.15"/>
</linearGradient>
<linearGradient id="paint12_linear_1672_40" x1="5219.23" y1="-2672.22" x2="5219.23" y2="7825.64" gradientUnits="userSpaceOnUse">
<stop offset="0.135417" stop-color="#CA3737" stop-opacity="0.37"/>
<stop offset="0.737959" stop-color="#EEA0A0" stop-opacity="0.15"/>
</linearGradient>
<linearGradient id="paint13_linear_1672_40" x1="4185.03" y1="-1000.99" x2="4185.03" y2="9496.87" gradientUnits="userSpaceOnUse">
<stop offset="0.135417" stop-color="#CA3737" stop-opacity="0.37"/>
<stop offset="0.737959" stop-color="#EEA0A0" stop-opacity="0.15"/>
</linearGradient>
<linearGradient id="paint14_linear_1672_40" x1="2032.77" y1="-1170.79" x2="2032.77" y2="9327.07" gradientUnits="userSpaceOnUse">
<stop offset="0.135417" stop-color="#CA3737" stop-opacity="0.37"/>
<stop offset="0.737959" stop-color="#EEA0A0" stop-opacity="0.15"/>
</linearGradient>
<linearGradient id="paint15_linear_1672_40" x1="6332.97" y1="7509.13" x2="6332.97" y2="18007" gradientUnits="userSpaceOnUse">
<stop offset="0.135417" stop-color="#CA3737" stop-opacity="0.37"/>
<stop offset="0.737959" stop-color="#EEA0A0" stop-opacity="0.15"/>
</linearGradient>
<linearGradient id="paint16_linear_1672_40" x1="7456.2" y1="7234.33" x2="7456.2" y2="17732.2" gradientUnits="userSpaceOnUse">
<stop offset="0.135417" stop-color="#CA3737" stop-opacity="0.37"/>
<stop offset="0.737959" stop-color="#EEA0A0" stop-opacity="0.15"/>
</linearGradient>
<linearGradient id="paint17_linear_1672_40" x1="7707.05" y1="-3417.26" x2="7707.05" y2="7080.61" gradientUnits="userSpaceOnUse">
<stop offset="0.135417" stop-color="#CA3737" stop-opacity="0.37"/>
<stop offset="0.737959" stop-color="#EEA0A0" stop-opacity="0.15"/>
</linearGradient>
<linearGradient id="paint18_linear_1672_40" x1="-1763.74" y1="-4205.74" x2="-1763.74" y2="11824.1" gradientUnits="userSpaceOnUse">
<stop offset="0.135417" stop-color="#CA3737" stop-opacity="0.37"/>
<stop offset="0.737959" stop-color="#EEA0A0" stop-opacity="0.15"/>
</linearGradient>
<linearGradient id="paint19_linear_1672_40" x1="7617.79" y1="8232.66" x2="7617.79" y2="22444.6" gradientUnits="userSpaceOnUse">
<stop offset="0.135417" stop-color="#CA3737" stop-opacity="0.37"/>
<stop offset="0.737959" stop-color="#EEA0A0" stop-opacity="0.15"/>
</linearGradient>
<linearGradient id="paint20_linear_1672_40" x1="-1652.24" y1="8750.14" x2="-1652.24" y2="23832.3" gradientUnits="userSpaceOnUse">
<stop offset="0.135417" stop-color="#CA3737" stop-opacity="0.37"/>
<stop offset="0.737959" stop-color="#EEA0A0" stop-opacity="0.15"/>
</linearGradient>
<linearGradient id="paint21_linear_1672_40" x1="6531.91" y1="-5024.09" x2="6531.91" y2="10058.1" gradientUnits="userSpaceOnUse">
<stop offset="0.135417" stop-color="#CA3737" stop-opacity="0.37"/>
<stop offset="0.737959" stop-color="#EEA0A0" stop-opacity="0.15"/>
</linearGradient>
<linearGradient id="paint22_linear_1672_40" x1="5323.78" y1="-5272.15" x2="5323.78" y2="9810.05" gradientUnits="userSpaceOnUse">
<stop offset="0.135417" stop-color="#CA3737" stop-opacity="0.37"/>
<stop offset="0.737959" stop-color="#EEA0A0" stop-opacity="0.15"/>
</linearGradient>
<linearGradient id="paint23_linear_1672_40" x1="7861.72" y1="-5316.98" x2="7861.72" y2="9765.22" gradientUnits="userSpaceOnUse">
<stop offset="0.135417" stop-color="#CA3737" stop-opacity="0.37"/>
<stop offset="0.737959" stop-color="#EEA0A0" stop-opacity="0.15"/>
</linearGradient>
<linearGradient id="paint24_linear_1672_40" x1="1857.74" y1="9760.77" x2="1857.74" y2="24843" gradientUnits="userSpaceOnUse">
<stop offset="0.135417" stop-color="#CA3737" stop-opacity="0.37"/>
<stop offset="0.737959" stop-color="#EEA0A0" stop-opacity="0.15"/>
</linearGradient>
<linearGradient id="paint25_linear_1672_40" x1="1117.54" y1="8672.66" x2="1117.54" y2="23754.9" gradientUnits="userSpaceOnUse">
<stop offset="0.135417" stop-color="#CA3737" stop-opacity="0.37"/>
<stop offset="0.737959" stop-color="#EEA0A0" stop-opacity="0.15"/>
</linearGradient>
<linearGradient id="paint26_linear_1672_40" x1="4867.28" y1="-4824.11" x2="4867.28" y2="10258.1" gradientUnits="userSpaceOnUse">
<stop offset="0.135417" stop-color="#CA3737" stop-opacity="0.37"/>
<stop offset="0.737959" stop-color="#EEA0A0" stop-opacity="0.15"/>
</linearGradient>
<linearGradient id="paint27_linear_1672_40" x1="7104.28" y1="-4105.93" x2="7104.28" y2="10976.3" gradientUnits="userSpaceOnUse">
<stop offset="0.135417" stop-color="#CA3737" stop-opacity="0.37"/>
<stop offset="0.737959" stop-color="#EEA0A0" stop-opacity="0.15"/>
</linearGradient>
<linearGradient id="paint28_linear_1672_40" x1="1003.15" y1="9524.25" x2="1003.15" y2="24606.5" gradientUnits="userSpaceOnUse">
<stop offset="0.135417" stop-color="#CA3737" stop-opacity="0.37"/>
<stop offset="0.737959" stop-color="#EEA0A0" stop-opacity="0.15"/>
</linearGradient>
<linearGradient id="paint29_linear_1672_40" x1="2600.44" y1="10074.1" x2="2600.44" y2="25156.3" gradientUnits="userSpaceOnUse">
<stop offset="0.135417" stop-color="#CA3737" stop-opacity="0.37"/>
<stop offset="0.737959" stop-color="#EEA0A0" stop-opacity="0.15"/>
</linearGradient>
<linearGradient id="paint30_linear_1672_40" x1="-1336.42" y1="9195.38" x2="-1336.42" y2="24277.6" gradientUnits="userSpaceOnUse">
<stop offset="0.135417" stop-color="#CA3737" stop-opacity="0.37"/>
<stop offset="0.737959" stop-color="#EEA0A0" stop-opacity="0.15"/>
</linearGradient>
<linearGradient id="paint31_linear_1672_40" x1="7434.76" y1="1486.15" x2="7434.76" y2="11984" gradientUnits="userSpaceOnUse">
<stop offset="0.135417" stop-color="#CA3737" stop-opacity="0.37"/>
<stop offset="0.737959" stop-color="#EEA0A0" stop-opacity="0.15"/>
</linearGradient>
<linearGradient id="paint32_linear_1672_40" x1="7612.77" y1="4003.41" x2="7612.77" y2="14501.3" gradientUnits="userSpaceOnUse">
<stop offset="0.135417" stop-color="#CA3737" stop-opacity="0.37"/>
<stop offset="0.737959" stop-color="#EEA0A0" stop-opacity="0.15"/>
</linearGradient>
<linearGradient id="paint33_linear_1672_40" x1="-2454.42" y1="1615.72" x2="-2454.42" y2="12113.6" gradientUnits="userSpaceOnUse">
<stop offset="0.135417" stop-color="#CA3737" stop-opacity="0.37"/>
<stop offset="0.737959" stop-color="#EEA0A0" stop-opacity="0.15"/>
</linearGradient>
<linearGradient id="paint34_linear_1672_40" x1="5379.06" y1="-4519.38" x2="5379.06" y2="9172.33" gradientUnits="userSpaceOnUse">
<stop offset="0.135417" stop-color="#CA3737" stop-opacity="0.37"/>
<stop offset="0.737959" stop-color="#EEA0A0" stop-opacity="0.15"/>
</linearGradient>
<linearGradient id="paint35_linear_1672_40" x1="4747.9" y1="8587.01" x2="4747.9" y2="23244.7" gradientUnits="userSpaceOnUse">
<stop offset="0.135417" stop-color="#CA3737" stop-opacity="0.37"/>
<stop offset="0.737959" stop-color="#EEA0A0" stop-opacity="0.15"/>
</linearGradient>
<linearGradient id="paint36_linear_1672_40" x1="3052.08" y1="-5746.24" x2="3052.08" y2="7945.47" gradientUnits="userSpaceOnUse">
<stop offset="0.135417" stop-color="#CA3737" stop-opacity="0.37"/>
<stop offset="0.737959" stop-color="#EEA0A0" stop-opacity="0.15"/>
</linearGradient>
<linearGradient id="paint37_linear_1672_40" x1="410.122" y1="8119.26" x2="410.122" y2="24149.1" gradientUnits="userSpaceOnUse">
<stop offset="0.135417" stop-color="#CA3737" stop-opacity="0.37"/>
<stop offset="0.737959" stop-color="#EEA0A0" stop-opacity="0.15"/>
</linearGradient>
<linearGradient id="paint38_linear_1672_40" x1="-5789.42" y1="5668.5" x2="-5789.42" y2="21698.4" gradientUnits="userSpaceOnUse">
<stop offset="0.135417" stop-color="#CA3737" stop-opacity="0.37"/>
<stop offset="0.737959" stop-color="#EEA0A0" stop-opacity="0.15"/>
</linearGradient>
<linearGradient id="paint39_linear_1672_40" x1="-921.589" y1="-3167.12" x2="-921.589" y2="11915.1" gradientUnits="userSpaceOnUse">
<stop offset="0.135417" stop-color="#CA3737" stop-opacity="0.37"/>
<stop offset="0.737959" stop-color="#EEA0A0" stop-opacity="0.15"/>
</linearGradient>
<linearGradient id="paint40_linear_1672_40" x1="1236.08" y1="-4197.78" x2="1236.08" y2="10884.4" gradientUnits="userSpaceOnUse">
<stop offset="0.135417" stop-color="#CA3737" stop-opacity="0.37"/>
<stop offset="0.737959" stop-color="#EEA0A0" stop-opacity="0.15"/>
</linearGradient>
<linearGradient id="paint41_linear_1672_40" x1="5742.38" y1="10543.1" x2="5742.38" y2="25625.3" gradientUnits="userSpaceOnUse">
<stop offset="0.135417" stop-color="#CA3737" stop-opacity="0.37"/>
<stop offset="0.737959" stop-color="#EEA0A0" stop-opacity="0.15"/>
</linearGradient>
<linearGradient id="paint42_linear_1672_40" x1="6515.96" y1="9978.12" x2="6515.96" y2="25060.3" gradientUnits="userSpaceOnUse">
<stop offset="0.135417" stop-color="#CA3737" stop-opacity="0.37"/>
<stop offset="0.737959" stop-color="#EEA0A0" stop-opacity="0.15"/>
</linearGradient>
<linearGradient id="paint43_linear_1672_40" x1="6709.06" y1="294.078" x2="6709.06" y2="10791.9" gradientUnits="userSpaceOnUse">
<stop offset="0.135417" stop-color="#CA3737" stop-opacity="0.37"/>
<stop offset="0.737959" stop-color="#EEA0A0" stop-opacity="0.15"/>
</linearGradient>
<linearGradient id="paint44_linear_1672_40" x1="-353.807" y1="4506.37" x2="-353.807" y2="15004.2" gradientUnits="userSpaceOnUse">
<stop offset="0.135417" stop-color="#CA3737" stop-opacity="0.37"/>
<stop offset="0.737959" stop-color="#EEA0A0" stop-opacity="0.15"/>
</linearGradient>
<linearGradient id="paint45_linear_1672_40" x1="-3537.15" y1="-3540.19" x2="-3537.15" y2="12489.7" gradientUnits="userSpaceOnUse">
<stop offset="0.135417" stop-color="#CA3737" stop-opacity="0.37"/>
<stop offset="0.737959" stop-color="#EEA0A0" stop-opacity="0.15"/>
</linearGradient>
<linearGradient id="paint46_linear_1672_40" x1="6233.66" y1="-417.008" x2="6233.66" y2="10080.9" gradientUnits="userSpaceOnUse">
<stop offset="0.135417" stop-color="#CA3737" stop-opacity="0.37"/>
<stop offset="0.737959" stop-color="#EEA0A0" stop-opacity="0.15"/>
</linearGradient>
<linearGradient id="paint47_linear_1672_40" x1="10891.3" y1="2527.97" x2="10891.3" y2="17610.2" gradientUnits="userSpaceOnUse">
<stop offset="0.135417" stop-color="#CA3737" stop-opacity="0.37"/>
<stop offset="0.737959" stop-color="#EEA0A0" stop-opacity="0.15"/>
</linearGradient>
<linearGradient id="paint48_linear_1672_40" x1="10323.6" y1="2233.27" x2="10323.6" y2="17315.5" gradientUnits="userSpaceOnUse">
<stop offset="0.135417" stop-color="#CA3737" stop-opacity="0.37"/>
<stop offset="0.737959" stop-color="#EEA0A0" stop-opacity="0.15"/>
</linearGradient>
<linearGradient id="paint49_linear_1672_40" x1="10341.3" y1="695.547" x2="10341.3" y2="15777.7" gradientUnits="userSpaceOnUse">
<stop offset="0.135417" stop-color="#CA3737" stop-opacity="0.37"/>
<stop offset="0.737959" stop-color="#EEA0A0" stop-opacity="0.15"/>
</linearGradient>
<linearGradient id="paint50_linear_1672_40" x1="-4843.23" y1="2064.12" x2="-4843.23" y2="17146.3" gradientUnits="userSpaceOnUse">
<stop offset="0.135417" stop-color="#CA3737" stop-opacity="0.37"/>
<stop offset="0.737959" stop-color="#EEA0A0" stop-opacity="0.15"/>
</linearGradient>
<linearGradient id="paint51_linear_1672_40" x1="2785.88" y1="7585.28" x2="2785.88" y2="18083.1" gradientUnits="userSpaceOnUse">
<stop offset="0.135417" stop-color="#CA3737" stop-opacity="0.37"/>
<stop offset="0.737959" stop-color="#EEA0A0" stop-opacity="0.15"/>
</linearGradient>
<linearGradient id="paint52_linear_1672_40" x1="12045.3" y1="4612.6" x2="12045.3" y2="20642.5" gradientUnits="userSpaceOnUse">
<stop offset="0.135417" stop-color="#CA3737" stop-opacity="0.37"/>
<stop offset="0.737959" stop-color="#EEA0A0" stop-opacity="0.15"/>
</linearGradient>
<linearGradient id="paint53_linear_1672_40" x1="-2404.56" y1="585.375" x2="-2404.56" y2="13884" gradientUnits="userSpaceOnUse">
<stop offset="0.135417" stop-color="#CA3737" stop-opacity="0.37"/>
<stop offset="0.737959" stop-color="#EEA0A0" stop-opacity="0.15"/>
</linearGradient>
<linearGradient id="paint54_linear_1672_40" x1="3706.84" y1="1328.14" x2="3323.92" y2="810.915" gradientUnits="userSpaceOnUse">
<stop offset="0.26826" stop-color="#A62846"/>
<stop offset="0.743707" stop-color="#FE67AF" stop-opacity="0.44"/>
</linearGradient>
<linearGradient id="paint55_linear_1672_40" x1="3140.08" y1="1268.72" x2="3643.64" y2="1156.95" gradientUnits="userSpaceOnUse">
<stop offset="0.0833333" stop-color="#FE678B"/>
<stop offset="1" stop-color="#76A4CE"/>
</linearGradient>
<linearGradient id="paint56_linear_1672_40" x1="2570.7" y1="828.274" x2="3074.26" y2="716.503" gradientUnits="userSpaceOnUse">
<stop offset="0.0833333" stop-color="#EB6B89"/>
<stop offset="0.718538" stop-color="#76A4CE" stop-opacity="0.65"/>
</linearGradient>
<linearGradient id="paint57_linear_1672_40" x1="2743.08" y1="834.203" x2="2743.08" y2="1527.44" gradientUnits="userSpaceOnUse">
<stop stop-color="#A62846"/>
<stop offset="1" stop-color="#FE678B" stop-opacity="0"/>
</linearGradient>
<linearGradient id="paint58_linear_1672_40" x1="2742.23" y1="753.602" x2="2742.23" y2="242.257" gradientUnits="userSpaceOnUse">
<stop stop-color="#603B44"/>
<stop offset="1" stop-color="#FE678B" stop-opacity="0"/>
</linearGradient>
<linearGradient id="paint59_linear_1672_40" x1="3435.46" y1="256.001" x2="2924.12" y2="256.001" gradientUnits="userSpaceOnUse">
<stop stop-color="#74293B"/>
<stop offset="1" stop-color="#FE678B" stop-opacity="0"/>
</linearGradient>
<linearGradient id="paint60_linear_1672_40" x1="3100.86" y1="769.066" x2="3612.21" y2="1119.11" gradientUnits="userSpaceOnUse">
<stop offset="0.26826" stop-color="#A62846"/>
<stop offset="1" stop-color="#FE678B" stop-opacity="0"/>
</linearGradient>
<linearGradient id="paint61_linear_1672_40" x1="3728.4" y1="1124.33" x2="3084.98" y2="1112.09" gradientUnits="userSpaceOnUse">
<stop offset="0.0718" stop-color="#8483BA"/>
<stop offset="1" stop-color="#C52E49"/>
</linearGradient>
<linearGradient id="paint62_linear_1672_40" x1="3366.97" y1="1469.23" x2="3278.17" y2="1082.79" gradientUnits="userSpaceOnUse">
<stop offset="0.0718" stop-color="#8483BA"/>
<stop offset="1" stop-color="#C52E49"/>
</linearGradient>
<linearGradient id="paint63_linear_1672_40" x1="2805.17" y1="981.098" x2="2716.37" y2="594.66" gradientUnits="userSpaceOnUse">
<stop offset="0.260417" stop-color="#8483BA"/>
<stop offset="0.917566" stop-color="#C52E49" stop-opacity="0.62"/>
</linearGradient>
<linearGradient id="paint64_linear_1672_40" x1="2813.88" y1="982.688" x2="2813.88" y2="1606.61" gradientUnits="userSpaceOnUse">
<stop stop-color="#C53155"/>
<stop offset="1" stop-color="#44B6C6" stop-opacity="0.97"/>
</linearGradient>
<linearGradient id="paint65_linear_1672_40" x1="2908.46" y1="1157.98" x2="2908.46" y2="1653.17" gradientUnits="userSpaceOnUse">
<stop stop-color="#C53155"/>
<stop offset="1" stop-color="#44B6C6" stop-opacity="0.97"/>
</linearGradient>
<clipPath id="clip0_1672_40">
<rect width="6418" height="1769" fill="white"/>
</clipPath>
</defs>
</svg>
