<svg width="6418" height="2463" viewBox="0 0 6418 2463" fill="none" xmlns="http://www.w3.org/2000/svg">
<g clip-path="url(#clip0_1672_40)">
<rect x="-151.609" y="42.8594" width="7012.02" height="3611.56" fill="#2A2E37"/>
<rect x="4553.51" y="7607.65" width="238.629" height="10488.7" transform="rotate(165.54 4553.51 7607.65)" fill="url(#paint0_linear_1672_40)" stroke="#FFFCFC" stroke-width="9.17804"/>
<rect x="2175.85" y="-2727" width="238.629" height="10488.7" transform="rotate(-11.4138 2175.85 -2727)" fill="url(#paint1_linear_1672_40)" stroke="#FFFCFC" stroke-width="9.17804"/>
<rect x="2902.86" y="8029.13" width="238.629" height="10488.7" transform="rotate(173.885 2902.86 8029.13)" fill="url(#paint2_linear_1672_40)" stroke="#FFFCFC" stroke-width="9.17804"/>
<rect x="2902.86" y="8029.17" width="238.629" height="10488.7" transform="rotate(173.885 2902.86 8029.17)" fill="url(#paint3_linear_1672_40)" stroke="#FFFCFC" stroke-width="9.17804"/>
<rect x="12132.5" y="2617.37" width="238.629" height="15073" transform="rotate(94.644 12132.5 2617.37)" fill="url(#paint4_linear_1672_40)" stroke="#FFFCFC" stroke-width="9.17804"/>
<rect x="-2407.08" y="3303.19" width="238.629" height="15073" transform="rotate(-94.4364 -2407.08 3303.19)" fill="url(#paint5_linear_1672_40)" stroke="#FFFCFC" stroke-width="9.17804"/>
<rect x="11627.9" y="4684.87" width="238.629" height="15073" transform="rotate(98.763 11627.9 4684.87)" fill="url(#paint6_linear_1672_40)" stroke="#FFFCFC" stroke-width="9.17804"/>
<rect x="11537.7" y="799.708" width="238.629" height="15073" transform="rotate(87.8877 11537.7 799.708)" fill="url(#paint7_linear_1672_40)" stroke="#FFFCFC" stroke-width="9.17804"/>
<rect x="-2884.1" y="4364.94" width="238.629" height="15073" transform="rotate(-105.093 -2884.1 4364.94)" fill="url(#paint8_linear_1672_40)" stroke="#FFFCFC" stroke-width="9.17804"/>
<rect x="-3600" y="2534.21" width="238.629" height="15073" transform="rotate(-99.6703 -3600 2534.21)" fill="url(#paint9_linear_1672_40)" stroke="#FFFCFC" stroke-width="9.17804"/>
<rect x="6467.09" y="6858.18" width="238.629" height="10488.7" transform="rotate(160.689 6467.09 6858.18)" fill="url(#paint10_linear_1672_40)" stroke="#FFFCFC" stroke-width="9.17804"/>
<rect x="8448.81" y="6144.39" width="238.629" height="10488.7" transform="rotate(159.497 8448.81 6144.39)" fill="url(#paint11_linear_1672_40)" stroke="#FFFCFC" stroke-width="9.17804"/>
<rect x="6132.58" y="-1690.1" width="238.629" height="10488.7" transform="rotate(-36.0602 6132.58 -1690.1)" fill="url(#paint12_linear_1672_40)" stroke="#FFFCFC" stroke-width="9.17804"/>
<rect x="384.963" y="7891.25" width="238.629" height="10488.7" transform="rotate(-161.195 384.963 7891.25)" fill="url(#paint13_linear_1672_40)" stroke="#FFFCFC" stroke-width="9.17804"/>
<rect x="5099.44" y="-2667.21" width="238.629" height="10488.7" transform="rotate(5.66224 5099.44 -2667.21)" fill="url(#paint14_linear_1672_40)" stroke="#FFFCFC" stroke-width="9.17804"/>
<rect x="4066.08" y="-996.811" width="238.629" height="10488.7" transform="rotate(-4.80115 4066.08 -996.811)" fill="url(#paint15_linear_1672_40)" stroke="#FFFCFC" stroke-width="9.17804"/>
<rect x="1913.82" y="-1166.61" width="238.629" height="10488.7" transform="rotate(-4.80115 1913.82 -1166.61)" fill="url(#paint16_linear_1672_40)" stroke="#FFFCFC" stroke-width="9.17804"/>
<rect x="6204.15" y="7504.88" width="238.629" height="10488.7" transform="rotate(175.838 6204.15 7504.88)" fill="url(#paint17_linear_1672_40)" stroke="#FFFCFC" stroke-width="9.17804"/>
<rect x="7327.42" y="7230.03" width="238.629" height="10488.7" transform="rotate(176.253 7327.42 7230.03)" fill="url(#paint18_linear_1672_40)" stroke="#FFFCFC" stroke-width="9.17804"/>
<rect x="7586.51" y="-3411.71" width="238.629" height="10488.7" transform="rotate(13.7954 7586.51 -3411.71)" fill="url(#paint19_linear_1672_40)" stroke="#FFFCFC" stroke-width="9.17804"/>
<rect x="-2121.57" y="2451.73" width="238.629" height="16020.7" transform="rotate(-90.8562 -2121.57 2451.73)" fill="url(#paint20_linear_1672_40)" stroke="#FFFCFC" stroke-width="9.17804"/>
<rect x="-1881.19" y="-4205.13" width="238.629" height="16020.7" transform="rotate(-39.4993 -1881.19 -4205.13)" fill="url(#paint21_linear_1672_40)" stroke="#FFFCFC" stroke-width="9.17804"/>
<rect x="7487.64" y="8230.86" width="238.629" height="14202.8" transform="rotate(150.967 7487.64 8230.86)" fill="url(#paint22_linear_1672_40)" stroke="#FFFCFC" stroke-width="9.17804"/>
<rect x="-1778.45" y="8744.07" width="238.629" height="15073" transform="rotate(-155.865 -1778.45 8744.07)" fill="url(#paint23_linear_1672_40)" stroke="#FFFCFC" stroke-width="9.17804"/>
<rect x="6410.32" y="-5018.04" width="238.629" height="15073" transform="rotate(24.1637 6410.32 -5018.04)" fill="url(#paint24_linear_1672_40)" stroke="#FFFCFC" stroke-width="9.17804"/>
<rect x="5202.18" y="-5266.09" width="238.629" height="15073" transform="rotate(24.1637 5202.18 -5266.09)" fill="url(#paint25_linear_1672_40)" stroke="#FFFCFC" stroke-width="9.17804"/>
<rect x="7740.12" y="-5310.91" width="238.629" height="15073" transform="rotate(24.1637 7740.12 -5310.91)" fill="url(#paint26_linear_1672_40)" stroke="#FFFCFC" stroke-width="9.17804"/>
<rect x="1731.73" y="9754.62" width="238.629" height="15073" transform="rotate(-153.95 1731.73 9754.62)" fill="url(#paint27_linear_1672_40)" stroke="#FFFCFC" stroke-width="9.17804"/>
<rect x="990.404" y="8667.03" width="238.629" height="15073" transform="rotate(-164.917 990.404 8667.03)" fill="url(#paint28_linear_1672_40)" stroke="#FFFCFC" stroke-width="9.17804"/>
<rect x="4744.79" y="-4817.78" width="238.629" height="15073" transform="rotate(32.3916 4744.79 -4817.78)" fill="url(#paint29_linear_1672_40)" stroke="#FFFCFC" stroke-width="9.17804"/>
<rect x="6982.24" y="-4099.71" width="238.629" height="15073" transform="rotate(28.2827 6982.24 -4099.71)" fill="url(#paint30_linear_1672_40)" stroke="#FFFCFC" stroke-width="9.17804"/>
<rect x="876.29" y="9518.46" width="238.629" height="15073" transform="rotate(-162.061 876.29 9518.46)" fill="url(#paint31_linear_1672_40)" stroke="#FFFCFC" stroke-width="9.17804"/>
<rect x="2473.27" y="10068.5" width="238.629" height="15073" transform="rotate(-165.286 2473.27 10068.5)" fill="url(#paint32_linear_1672_40)" stroke="#FFFCFC" stroke-width="9.17804"/>
<rect x="-1463.6" y="9189.77" width="238.629" height="15073" transform="rotate(-165.286 -1463.6 9189.77)" fill="url(#paint33_linear_1672_40)" stroke="#FFFCFC" stroke-width="9.17804"/>
<rect x="7306.25" y="1490.71" width="238.629" height="10488.7" transform="rotate(90.2089 7306.25 1490.71)" fill="url(#paint34_linear_1672_40)" stroke="#FFFCFC" stroke-width="9.17804"/>
<rect x="7482.79" y="4005.67" width="238.629" height="10488.7" transform="rotate(114.557 7482.79 4005.67)" fill="url(#paint35_linear_1672_40)" stroke="#FFFCFC" stroke-width="9.17804"/>
<rect x="-2572.72" y="1612.43" width="238.629" height="10488.7" transform="rotate(-75.2815 -2572.72 1612.43)" fill="url(#paint36_linear_1672_40)" stroke="#FFFCFC" stroke-width="9.17804"/>
<rect x="5257.64" y="-4513.38" width="238.629" height="13682.5" transform="rotate(22.4642 5257.64 -4513.38)" fill="url(#paint37_linear_1672_40)" stroke="#FFFCFC" stroke-width="9.17804"/>
<rect x="4618.6" y="8583.39" width="238.629" height="14648.5" transform="rotate(168.797 4618.6 8583.39)" fill="url(#paint38_linear_1672_40)" stroke="#FFFCFC" stroke-width="9.17804"/>
<rect x="2931.69" y="-5740.8" width="238.629" height="13682.5" transform="rotate(12.1439 2931.69 -5740.8)" fill="url(#paint39_linear_1672_40)" stroke="#FFFCFC" stroke-width="9.17804"/>
<rect x="283.34" y="8113.43" width="238.629" height="16020.7" transform="rotate(-161.336 283.34 8113.43)" fill="url(#paint40_linear_1672_40)" stroke="#FFFCFC" stroke-width="9.17804"/>
<rect x="-5910.58" y="5662.61" width="238.629" height="16020.7" transform="rotate(-109.98 -5910.58 5662.61)" fill="url(#paint41_linear_1672_40)" stroke="#FFFCFC" stroke-width="9.17804"/>
<rect x="-1039.78" y="-3164.03" width="238.629" height="15073" transform="rotate(-16.5856 -1039.78 -3164.03)" fill="url(#paint42_linear_1672_40)" stroke="#FFFCFC" stroke-width="9.17804"/>
<rect x="1117.43" y="-4193.98" width="238.629" height="15073" transform="rotate(-9.11293 1117.43 -4193.98)" fill="url(#paint43_linear_1672_40)" stroke="#FFFCFC" stroke-width="9.17804"/>
<rect x="5612.84" y="10539.9" width="238.629" height="15073" transform="rotate(164.662 5612.84 10539.9)" fill="url(#paint44_linear_1672_40)" stroke="#FFFCFC" stroke-width="9.17804"/>
<rect x="6385.82" y="9976.31" width="238.629" height="15073" transform="rotate(151.15 6385.82 9976.31)" fill="url(#paint45_linear_1672_40)" stroke="#FFFCFC" stroke-width="9.17804"/>
<rect x="6583.81" y="300.42" width="238.629" height="10488.7" transform="rotate(56.9323 6583.81 300.42)" fill="url(#paint46_linear_1672_40)" stroke="#FFFCFC" stroke-width="9.17804"/>
<rect x="8111.32" y="2306.18" width="238.629" height="10488.7" transform="rotate(81.2807 8111.32 2306.18)" fill="url(#paint47_linear_1672_40)" stroke="#FFFCFC" stroke-width="9.17804"/>
<rect x="-2343.05" y="3894.06" width="238.629" height="10488.7" transform="rotate(-98.0947 -2343.05 3894.06)" fill="url(#paint48_linear_1672_40)" stroke="#FFFCFC" stroke-width="9.17804"/>
<rect x="-474.821" y="4500.56" width="238.629" height="10488.7" transform="rotate(-108.558 -474.821 4500.56)" fill="url(#paint49_linear_1672_40)" stroke="#FFFCFC" stroke-width="9.17804"/>
<rect x="-3654.57" y="-3540.43" width="238.629" height="16020.7" transform="rotate(-47.0882 -3654.57 -3540.43)" fill="url(#paint50_linear_1672_40)" stroke="#FFFCFC" stroke-width="9.17804"/>
<rect x="6106.76" y="-411.261" width="238.629" height="10488.7" transform="rotate(72.5379 6106.76 -411.261)" fill="url(#paint51_linear_1672_40)" stroke="#FFFCFC" stroke-width="9.17804"/>
<rect x="10762.4" y="2532.04" width="238.629" height="15073" transform="rotate(96.0645 10762.4 2532.04)" fill="url(#paint52_linear_1672_40)" stroke="#FFFCFC" stroke-width="9.17804"/>
<rect x="10194.1" y="2236.58" width="238.629" height="15073" transform="rotate(104.292 10194.1 2236.58)" fill="url(#paint53_linear_1672_40)" stroke="#FFFCFC" stroke-width="9.17804"/>
<rect x="10212.9" y="700.183" width="238.629" height="15073" transform="rotate(89.3082 10212.9 700.183)" fill="url(#paint54_linear_1672_40)" stroke="#FFFCFC" stroke-width="9.17804"/>
<rect x="-4963.25" y="2058.91" width="238.629" height="15073" transform="rotate(-98.2498 -4963.25 2058.91)" fill="url(#paint55_linear_1672_40)" stroke="#FFFCFC" stroke-width="9.17804"/>
<rect x="2657.93" y="7580.19" width="238.629" height="10488.7" transform="rotate(-173.542 2657.93 7580.19)" fill="url(#paint56_linear_1672_40)" stroke="#FFFCFC" stroke-width="9.17804"/>
<rect x="-3483.23" y="2013.1" width="238.629" height="16020.7" transform="rotate(-89.4357 -3483.23 2013.1)" fill="url(#paint57_linear_1672_40)" stroke="#FFFCFC" stroke-width="9.17804"/>
<rect x="11915.8" y="4615.8" width="238.629" height="16020.7" transform="rotate(105.419 11915.8 4615.8)" fill="url(#paint58_linear_1672_40)" stroke="#FFFCFC" stroke-width="9.17804"/>
<rect x="-2523.73" y="580.927" width="238.629" height="13289.4" transform="rotate(-88.1724 -2523.73 580.927)" fill="url(#paint59_linear_1672_40)" stroke="#FFFCFC" stroke-width="9.17804"/>
<rect x="-482.008" y="-673.031" width="11628.6" height="6585.24" fill="#1C2B30" fill-opacity="0.91"/>
<path d="M3878.49 1695.69L3878.49 1438.19L3525.95 1322.4L3878.49 1695.69Z" fill="url(#paint60_linear_1672_40)"/>
<path d="M3472.37 1695.69L3878.49 1909.98L3878.49 1694.93L3472.37 1695.69Z" fill="url(#paint61_linear_1672_40)"/>
<path d="M3997.99 685.651C3997.99 744.695 3990.69 797.436 3976.1 843.876C3961.5 890.315 3941.6 931.447 3916.39 967.271C3891.84 1002.43 3863.32 1032.62 3830.81 1057.83C3798.3 1083.04 3764.14 1103.94 3728.31 1120.52C3693.15 1136.44 3657.33 1148.05 3620.84 1155.35C3585.01 1162.65 3551.18 1166.3 3519.34 1166.3L3878.86 1439H3481.44L3120.29 1166.3H2830.71V907.564H3519.34C3551.84 904.91 3581.37 898.276 3607.9 887.661C3635.1 876.383 3658.32 861.456 3677.56 842.88C3697.46 824.305 3712.72 802.08 3723.34 776.207C3733.95 749.67 3739.26 719.485 3739.26 685.651V522.45C3739.26 507.855 3737.27 496.908 3733.29 489.611C3729.97 481.65 3725.33 476.011 3719.36 472.694C3714.05 468.713 3708.08 466.391 3701.44 465.728C3695.47 465.064 3689.83 464.733 3684.53 464.733H2830.71V1239.18V1288.56V1498.44V1708.32V1876.22V1936.17L2571.98 2165.44V1424.36V1362.64L2646.37 1166.3L2571.98 1051.52V952.759V392.265V336.361C2571.98 318.449 2575.29 301.532 2581.93 285.61C2588.56 269.688 2597.52 255.756 2608.8 243.815C2620.74 231.873 2634.67 222.585 2650.59 215.951C2666.51 209.317 2683.76 206 2702.34 206H3684.53C3742.24 206 3791.01 216.615 3830.81 237.844C3870.62 258.41 3902.79 284.615 3927.34 316.459C3952.55 347.64 3970.46 381.474 3981.07 417.962C3992.35 454.45 3997.99 488.616 3997.99 520.46V685.651Z" fill="#FE678B"/>
<path d="M2898.68 1019.16L2645.91 1169.37L2574.37 1357.79L2831.91 1169.37L2898.68 1019.16Z" fill="url(#paint62_linear_1672_40)"/>
<path d="M2571.98 1362.58L2831.24 1167.52V1935.42L2571.98 2165.05V1362.58Z" fill="url(#paint63_linear_1672_40)"/>
<path d="M2831.9 907.074L2572 1051.53V485.728L2831.9 314.558V907.074Z" fill="url(#paint64_linear_1672_40)"/>
<path d="M3556.21 207.109L3697.53 465.917L3131.64 465.917L2962.12 207.109L3556.21 207.109Z" fill="url(#paint65_linear_1672_40)"/>
<path d="M3520.16 1165.14L3525.09 1439.21H3878.18L3520.16 1165.14Z" fill="url(#paint66_linear_1672_40)"/>
<path d="M3879.55 1695.95L3665.94 1469.29L3472.38 1695.95L3879.55 1695.95Z" fill="url(#paint67_linear_1672_40)"/>
<path d="M3472.38 1944.54L3640.38 1783.81L3472.38 1695.68L3472.38 1944.54Z" fill="url(#paint68_linear_1672_40)"/>
<path d="M2645.89 1169.42L2898.67 1019.17L2831.99 907.099L2571.97 1052.56L2645.89 1169.42Z" fill="url(#paint69_linear_1672_40)"/>
<path d="M2665.3 1604.11L2941.7 1381.17V2039.6L2675.67 2278.97L2665.3 1604.11Z" fill="url(#paint70_linear_1672_40)"/>
<path d="M2827.78 1747.47L3051.4 1560.83V2127.67L2827.78 2345.96V1747.47Z" fill="url(#paint71_linear_1672_40)"/>
</g>
<defs>
<linearGradient id="paint0_linear_1672_40" x1="4683.01" y1="7610.95" x2="4683.01" y2="18108.8" gradientUnits="userSpaceOnUse">
<stop offset="0.135417" stop-color="#CA3737" stop-opacity="0.37"/>
<stop offset="0.737959" stop-color="#EEA0A0" stop-opacity="0.15"/>
</linearGradient>
<linearGradient id="paint1_linear_1672_40" x1="2294.35" y1="-2730.59" x2="2294.35" y2="7767.27" gradientUnits="userSpaceOnUse">
<stop offset="0.135417" stop-color="#CA3737" stop-opacity="0.37"/>
<stop offset="0.737959" stop-color="#EEA0A0" stop-opacity="0.15"/>
</linearGradient>
<linearGradient id="paint2_linear_1672_40" x1="3031.82" y1="8033.2" x2="3031.82" y2="18531.1" gradientUnits="userSpaceOnUse">
<stop offset="0.135417" stop-color="#CA3737" stop-opacity="0.37"/>
<stop offset="0.737959" stop-color="#EEA0A0" stop-opacity="0.15"/>
</linearGradient>
<linearGradient id="paint3_linear_1672_40" x1="3031.82" y1="8033.24" x2="3031.82" y2="18531.1" gradientUnits="userSpaceOnUse">
<stop offset="0.135417" stop-color="#CA3737" stop-opacity="0.37"/>
<stop offset="0.737959" stop-color="#EEA0A0" stop-opacity="0.15"/>
</linearGradient>
<linearGradient id="paint4_linear_1672_40" x1="12261.3" y1="2613.17" x2="12261.3" y2="17695.4" gradientUnits="userSpaceOnUse">
<stop offset="0.135417" stop-color="#CA3737" stop-opacity="0.37"/>
<stop offset="0.737959" stop-color="#EEA0A0" stop-opacity="0.15"/>
</linearGradient>
<linearGradient id="paint5_linear_1672_40" x1="-2287.39" y1="3308.12" x2="-2287.39" y2="18390.3" gradientUnits="userSpaceOnUse">
<stop offset="0.135417" stop-color="#CA3737" stop-opacity="0.37"/>
<stop offset="0.737959" stop-color="#EEA0A0" stop-opacity="0.15"/>
</linearGradient>
<linearGradient id="paint6_linear_1672_40" x1="11757.1" y1="4681.03" x2="11757.1" y2="19763.2" gradientUnits="userSpaceOnUse">
<stop offset="0.135417" stop-color="#CA3737" stop-opacity="0.37"/>
<stop offset="0.737959" stop-color="#EEA0A0" stop-opacity="0.15"/>
</linearGradient>
<linearGradient id="paint7_linear_1672_40" x1="11666.1" y1="794.953" x2="11666.1" y2="15877.2" gradientUnits="userSpaceOnUse">
<stop offset="0.135417" stop-color="#CA3737" stop-opacity="0.37"/>
<stop offset="0.737959" stop-color="#EEA0A0" stop-opacity="0.15"/>
</linearGradient>
<linearGradient id="paint8_linear_1672_40" x1="-2763.43" y1="4370.56" x2="-2763.43" y2="19452.8" gradientUnits="userSpaceOnUse">
<stop offset="0.135417" stop-color="#CA3737" stop-opacity="0.37"/>
<stop offset="0.737959" stop-color="#EEA0A0" stop-opacity="0.15"/>
</linearGradient>
<linearGradient id="paint9_linear_1672_40" x1="-3479.85" y1="2539.5" x2="-3479.85" y2="17621.7" gradientUnits="userSpaceOnUse">
<stop offset="0.135417" stop-color="#CA3737" stop-opacity="0.37"/>
<stop offset="0.737959" stop-color="#EEA0A0" stop-opacity="0.15"/>
</linearGradient>
<linearGradient id="paint10_linear_1672_40" x1="6596.84" y1="6860.99" x2="6596.84" y2="17358.9" gradientUnits="userSpaceOnUse">
<stop offset="0.135417" stop-color="#CA3737" stop-opacity="0.37"/>
<stop offset="0.737959" stop-color="#EEA0A0" stop-opacity="0.15"/>
</linearGradient>
<linearGradient id="paint11_linear_1672_40" x1="8578.61" y1="6147.09" x2="8578.61" y2="16644.9" gradientUnits="userSpaceOnUse">
<stop offset="0.135417" stop-color="#CA3737" stop-opacity="0.37"/>
<stop offset="0.737959" stop-color="#EEA0A0" stop-opacity="0.15"/>
</linearGradient>
<linearGradient id="paint12_linear_1672_40" x1="6250.08" y1="-1691.11" x2="6250.08" y2="8806.75" gradientUnits="userSpaceOnUse">
<stop offset="0.135417" stop-color="#CA3737" stop-opacity="0.37"/>
<stop offset="0.737959" stop-color="#EEA0A0" stop-opacity="0.15"/>
</linearGradient>
<linearGradient id="paint13_linear_1672_40" x1="511.732" y1="7897.07" x2="511.732" y2="18394.9" gradientUnits="userSpaceOnUse">
<stop offset="0.135417" stop-color="#CA3737" stop-opacity="0.37"/>
<stop offset="0.737959" stop-color="#EEA0A0" stop-opacity="0.15"/>
</linearGradient>
<linearGradient id="paint14_linear_1672_40" x1="5219.23" y1="-2672.23" x2="5219.23" y2="7825.64" gradientUnits="userSpaceOnUse">
<stop offset="0.135417" stop-color="#CA3737" stop-opacity="0.37"/>
<stop offset="0.737959" stop-color="#EEA0A0" stop-opacity="0.15"/>
</linearGradient>
<linearGradient id="paint15_linear_1672_40" x1="4185.03" y1="-1001" x2="4185.03" y2="9496.86" gradientUnits="userSpaceOnUse">
<stop offset="0.135417" stop-color="#CA3737" stop-opacity="0.37"/>
<stop offset="0.737959" stop-color="#EEA0A0" stop-opacity="0.15"/>
</linearGradient>
<linearGradient id="paint16_linear_1672_40" x1="2032.77" y1="-1170.8" x2="2032.77" y2="9327.07" gradientUnits="userSpaceOnUse">
<stop offset="0.135417" stop-color="#CA3737" stop-opacity="0.37"/>
<stop offset="0.737959" stop-color="#EEA0A0" stop-opacity="0.15"/>
</linearGradient>
<linearGradient id="paint17_linear_1672_40" x1="6332.97" y1="7509.12" x2="6332.97" y2="18007" gradientUnits="userSpaceOnUse">
<stop offset="0.135417" stop-color="#CA3737" stop-opacity="0.37"/>
<stop offset="0.737959" stop-color="#EEA0A0" stop-opacity="0.15"/>
</linearGradient>
<linearGradient id="paint18_linear_1672_40" x1="7456.2" y1="7234.31" x2="7456.2" y2="17732.2" gradientUnits="userSpaceOnUse">
<stop offset="0.135417" stop-color="#CA3737" stop-opacity="0.37"/>
<stop offset="0.737959" stop-color="#EEA0A0" stop-opacity="0.15"/>
</linearGradient>
<linearGradient id="paint19_linear_1672_40" x1="7707.05" y1="-3417.27" x2="7707.05" y2="7080.6" gradientUnits="userSpaceOnUse">
<stop offset="0.135417" stop-color="#CA3737" stop-opacity="0.37"/>
<stop offset="0.737959" stop-color="#EEA0A0" stop-opacity="0.15"/>
</linearGradient>
<linearGradient id="paint20_linear_1672_40" x1="-2002.19" y1="2456.39" x2="-2002.19" y2="18486.3" gradientUnits="userSpaceOnUse">
<stop offset="0.135417" stop-color="#CA3737" stop-opacity="0.37"/>
<stop offset="0.737959" stop-color="#EEA0A0" stop-opacity="0.15"/>
</linearGradient>
<linearGradient id="paint21_linear_1672_40" x1="-1763.74" y1="-4205.75" x2="-1763.74" y2="11824.1" gradientUnits="userSpaceOnUse">
<stop offset="0.135417" stop-color="#CA3737" stop-opacity="0.37"/>
<stop offset="0.737959" stop-color="#EEA0A0" stop-opacity="0.15"/>
</linearGradient>
<linearGradient id="paint22_linear_1672_40" x1="7617.79" y1="8232.64" x2="7617.79" y2="22444.6" gradientUnits="userSpaceOnUse">
<stop offset="0.135417" stop-color="#CA3737" stop-opacity="0.37"/>
<stop offset="0.737959" stop-color="#EEA0A0" stop-opacity="0.15"/>
</linearGradient>
<linearGradient id="paint23_linear_1672_40" x1="-1652.24" y1="8750.13" x2="-1652.24" y2="23832.3" gradientUnits="userSpaceOnUse">
<stop offset="0.135417" stop-color="#CA3737" stop-opacity="0.37"/>
<stop offset="0.737959" stop-color="#EEA0A0" stop-opacity="0.15"/>
</linearGradient>
<linearGradient id="paint24_linear_1672_40" x1="6531.91" y1="-5024.1" x2="6531.91" y2="10058.1" gradientUnits="userSpaceOnUse">
<stop offset="0.135417" stop-color="#CA3737" stop-opacity="0.37"/>
<stop offset="0.737959" stop-color="#EEA0A0" stop-opacity="0.15"/>
</linearGradient>
<linearGradient id="paint25_linear_1672_40" x1="5323.78" y1="-5272.16" x2="5323.78" y2="9810.05" gradientUnits="userSpaceOnUse">
<stop offset="0.135417" stop-color="#CA3737" stop-opacity="0.37"/>
<stop offset="0.737959" stop-color="#EEA0A0" stop-opacity="0.15"/>
</linearGradient>
<linearGradient id="paint26_linear_1672_40" x1="7861.72" y1="-5316.98" x2="7861.72" y2="9765.22" gradientUnits="userSpaceOnUse">
<stop offset="0.135417" stop-color="#CA3737" stop-opacity="0.37"/>
<stop offset="0.737959" stop-color="#EEA0A0" stop-opacity="0.15"/>
</linearGradient>
<linearGradient id="paint27_linear_1672_40" x1="1857.74" y1="9760.76" x2="1857.74" y2="24843" gradientUnits="userSpaceOnUse">
<stop offset="0.135417" stop-color="#CA3737" stop-opacity="0.37"/>
<stop offset="0.737959" stop-color="#EEA0A0" stop-opacity="0.15"/>
</linearGradient>
<linearGradient id="paint28_linear_1672_40" x1="1117.54" y1="8672.66" x2="1117.54" y2="23754.9" gradientUnits="userSpaceOnUse">
<stop offset="0.135417" stop-color="#CA3737" stop-opacity="0.37"/>
<stop offset="0.737959" stop-color="#EEA0A0" stop-opacity="0.15"/>
</linearGradient>
<linearGradient id="paint29_linear_1672_40" x1="4867.28" y1="-4824.12" x2="4867.28" y2="10258.1" gradientUnits="userSpaceOnUse">
<stop offset="0.135417" stop-color="#CA3737" stop-opacity="0.37"/>
<stop offset="0.737959" stop-color="#EEA0A0" stop-opacity="0.15"/>
</linearGradient>
<linearGradient id="paint30_linear_1672_40" x1="7104.28" y1="-4105.93" x2="7104.28" y2="10976.3" gradientUnits="userSpaceOnUse">
<stop offset="0.135417" stop-color="#CA3737" stop-opacity="0.37"/>
<stop offset="0.737959" stop-color="#EEA0A0" stop-opacity="0.15"/>
</linearGradient>
<linearGradient id="paint31_linear_1672_40" x1="1003.15" y1="9524.24" x2="1003.15" y2="24606.4" gradientUnits="userSpaceOnUse">
<stop offset="0.135417" stop-color="#CA3737" stop-opacity="0.37"/>
<stop offset="0.737959" stop-color="#EEA0A0" stop-opacity="0.15"/>
</linearGradient>
<linearGradient id="paint32_linear_1672_40" x1="2600.44" y1="10074.1" x2="2600.44" y2="25156.3" gradientUnits="userSpaceOnUse">
<stop offset="0.135417" stop-color="#CA3737" stop-opacity="0.37"/>
<stop offset="0.737959" stop-color="#EEA0A0" stop-opacity="0.15"/>
</linearGradient>
<linearGradient id="paint33_linear_1672_40" x1="-1336.42" y1="9195.37" x2="-1336.42" y2="24277.6" gradientUnits="userSpaceOnUse">
<stop offset="0.135417" stop-color="#CA3737" stop-opacity="0.37"/>
<stop offset="0.737959" stop-color="#EEA0A0" stop-opacity="0.15"/>
</linearGradient>
<linearGradient id="paint34_linear_1672_40" x1="7434.76" y1="1486.14" x2="7434.76" y2="11984" gradientUnits="userSpaceOnUse">
<stop offset="0.135417" stop-color="#CA3737" stop-opacity="0.37"/>
<stop offset="0.737959" stop-color="#EEA0A0" stop-opacity="0.15"/>
</linearGradient>
<linearGradient id="paint35_linear_1672_40" x1="7612.77" y1="4003.41" x2="7612.77" y2="14501.3" gradientUnits="userSpaceOnUse">
<stop offset="0.135417" stop-color="#CA3737" stop-opacity="0.37"/>
<stop offset="0.737959" stop-color="#EEA0A0" stop-opacity="0.15"/>
</linearGradient>
<linearGradient id="paint36_linear_1672_40" x1="-2454.42" y1="1615.7" x2="-2454.42" y2="12113.6" gradientUnits="userSpaceOnUse">
<stop offset="0.135417" stop-color="#CA3737" stop-opacity="0.37"/>
<stop offset="0.737959" stop-color="#EEA0A0" stop-opacity="0.15"/>
</linearGradient>
<linearGradient id="paint37_linear_1672_40" x1="5379.06" y1="-4519.38" x2="5379.06" y2="9172.33" gradientUnits="userSpaceOnUse">
<stop offset="0.135417" stop-color="#CA3737" stop-opacity="0.37"/>
<stop offset="0.737959" stop-color="#EEA0A0" stop-opacity="0.15"/>
</linearGradient>
<linearGradient id="paint38_linear_1672_40" x1="4747.9" y1="8587" x2="4747.9" y2="23244.7" gradientUnits="userSpaceOnUse">
<stop offset="0.135417" stop-color="#CA3737" stop-opacity="0.37"/>
<stop offset="0.737959" stop-color="#EEA0A0" stop-opacity="0.15"/>
</linearGradient>
<linearGradient id="paint39_linear_1672_40" x1="3052.08" y1="-5746.25" x2="3052.08" y2="7945.46" gradientUnits="userSpaceOnUse">
<stop offset="0.135417" stop-color="#CA3737" stop-opacity="0.37"/>
<stop offset="0.737959" stop-color="#EEA0A0" stop-opacity="0.15"/>
</linearGradient>
<linearGradient id="paint40_linear_1672_40" x1="410.122" y1="8119.25" x2="410.122" y2="24149.1" gradientUnits="userSpaceOnUse">
<stop offset="0.135417" stop-color="#CA3737" stop-opacity="0.37"/>
<stop offset="0.737959" stop-color="#EEA0A0" stop-opacity="0.15"/>
</linearGradient>
<linearGradient id="paint41_linear_1672_40" x1="-5789.42" y1="5668.49" x2="-5789.42" y2="21698.4" gradientUnits="userSpaceOnUse">
<stop offset="0.135417" stop-color="#CA3737" stop-opacity="0.37"/>
<stop offset="0.737959" stop-color="#EEA0A0" stop-opacity="0.15"/>
</linearGradient>
<linearGradient id="paint42_linear_1672_40" x1="-921.589" y1="-3167.12" x2="-921.589" y2="11915.1" gradientUnits="userSpaceOnUse">
<stop offset="0.135417" stop-color="#CA3737" stop-opacity="0.37"/>
<stop offset="0.737959" stop-color="#EEA0A0" stop-opacity="0.15"/>
</linearGradient>
<linearGradient id="paint43_linear_1672_40" x1="1236.08" y1="-4197.79" x2="1236.08" y2="10884.4" gradientUnits="userSpaceOnUse">
<stop offset="0.135417" stop-color="#CA3737" stop-opacity="0.37"/>
<stop offset="0.737959" stop-color="#EEA0A0" stop-opacity="0.15"/>
</linearGradient>
<linearGradient id="paint44_linear_1672_40" x1="5742.38" y1="10543.1" x2="5742.38" y2="25625.3" gradientUnits="userSpaceOnUse">
<stop offset="0.135417" stop-color="#CA3737" stop-opacity="0.37"/>
<stop offset="0.737959" stop-color="#EEA0A0" stop-opacity="0.15"/>
</linearGradient>
<linearGradient id="paint45_linear_1672_40" x1="6515.96" y1="9978.12" x2="6515.96" y2="25060.3" gradientUnits="userSpaceOnUse">
<stop offset="0.135417" stop-color="#CA3737" stop-opacity="0.37"/>
<stop offset="0.737959" stop-color="#EEA0A0" stop-opacity="0.15"/>
</linearGradient>
<linearGradient id="paint46_linear_1672_40" x1="6709.06" y1="294.07" x2="6709.06" y2="10791.9" gradientUnits="userSpaceOnUse">
<stop offset="0.135417" stop-color="#CA3737" stop-opacity="0.37"/>
<stop offset="0.737959" stop-color="#EEA0A0" stop-opacity="0.15"/>
</linearGradient>
<linearGradient id="paint47_linear_1672_40" x1="8239.06" y1="2300.95" x2="8239.06" y2="12798.8" gradientUnits="userSpaceOnUse">
<stop offset="0.135417" stop-color="#CA3737" stop-opacity="0.37"/>
<stop offset="0.737959" stop-color="#EEA0A0" stop-opacity="0.15"/>
</linearGradient>
<linearGradient id="paint48_linear_1672_40" x1="-2223.04" y1="3899.25" x2="-2223.04" y2="14397.1" gradientUnits="userSpaceOnUse">
<stop offset="0.135417" stop-color="#CA3737" stop-opacity="0.37"/>
<stop offset="0.737959" stop-color="#EEA0A0" stop-opacity="0.15"/>
</linearGradient>
<linearGradient id="paint49_linear_1672_40" x1="-353.807" y1="4506.37" x2="-353.807" y2="15004.2" gradientUnits="userSpaceOnUse">
<stop offset="0.135417" stop-color="#CA3737" stop-opacity="0.37"/>
<stop offset="0.737959" stop-color="#EEA0A0" stop-opacity="0.15"/>
</linearGradient>
<linearGradient id="paint50_linear_1672_40" x1="-3537.15" y1="-3540.2" x2="-3537.15" y2="12489.7" gradientUnits="userSpaceOnUse">
<stop offset="0.135417" stop-color="#CA3737" stop-opacity="0.37"/>
<stop offset="0.737959" stop-color="#EEA0A0" stop-opacity="0.15"/>
</linearGradient>
<linearGradient id="paint51_linear_1672_40" x1="6233.66" y1="-417.016" x2="6233.66" y2="10080.8" gradientUnits="userSpaceOnUse">
<stop offset="0.135417" stop-color="#CA3737" stop-opacity="0.37"/>
<stop offset="0.737959" stop-color="#EEA0A0" stop-opacity="0.15"/>
</linearGradient>
<linearGradient id="paint52_linear_1672_40" x1="10891.3" y1="2527.96" x2="10891.3" y2="17610.2" gradientUnits="userSpaceOnUse">
<stop offset="0.135417" stop-color="#CA3737" stop-opacity="0.37"/>
<stop offset="0.737959" stop-color="#EEA0A0" stop-opacity="0.15"/>
</linearGradient>
<linearGradient id="paint53_linear_1672_40" x1="10323.6" y1="2233.27" x2="10323.6" y2="17315.5" gradientUnits="userSpaceOnUse">
<stop offset="0.135417" stop-color="#CA3737" stop-opacity="0.37"/>
<stop offset="0.737959" stop-color="#EEA0A0" stop-opacity="0.15"/>
</linearGradient>
<linearGradient id="paint54_linear_1672_40" x1="10341.3" y1="695.539" x2="10341.3" y2="15777.7" gradientUnits="userSpaceOnUse">
<stop offset="0.135417" stop-color="#CA3737" stop-opacity="0.37"/>
<stop offset="0.737959" stop-color="#EEA0A0" stop-opacity="0.15"/>
</linearGradient>
<linearGradient id="paint55_linear_1672_40" x1="-4843.23" y1="2064.11" x2="-4843.23" y2="17146.3" gradientUnits="userSpaceOnUse">
<stop offset="0.135417" stop-color="#CA3737" stop-opacity="0.37"/>
<stop offset="0.737959" stop-color="#EEA0A0" stop-opacity="0.15"/>
</linearGradient>
<linearGradient id="paint56_linear_1672_40" x1="2785.88" y1="7585.27" x2="2785.88" y2="18083.1" gradientUnits="userSpaceOnUse">
<stop offset="0.135417" stop-color="#CA3737" stop-opacity="0.37"/>
<stop offset="0.737959" stop-color="#EEA0A0" stop-opacity="0.15"/>
</linearGradient>
<linearGradient id="paint57_linear_1672_40" x1="-3363.96" y1="2017.65" x2="-3363.96" y2="18047.5" gradientUnits="userSpaceOnUse">
<stop offset="0.135417" stop-color="#CA3737" stop-opacity="0.37"/>
<stop offset="0.737959" stop-color="#EEA0A0" stop-opacity="0.15"/>
</linearGradient>
<linearGradient id="paint58_linear_1672_40" x1="12045.3" y1="4612.59" x2="12045.3" y2="20642.5" gradientUnits="userSpaceOnUse">
<stop offset="0.135417" stop-color="#CA3737" stop-opacity="0.37"/>
<stop offset="0.737959" stop-color="#EEA0A0" stop-opacity="0.15"/>
</linearGradient>
<linearGradient id="paint59_linear_1672_40" x1="-2404.56" y1="585.367" x2="-2404.56" y2="13884" gradientUnits="userSpaceOnUse">
<stop offset="0.135417" stop-color="#CA3737" stop-opacity="0.37"/>
<stop offset="0.737959" stop-color="#EEA0A0" stop-opacity="0.15"/>
</linearGradient>
<linearGradient id="paint60_linear_1672_40" x1="4088.43" y1="1878.26" x2="3537.42" y2="1134" gradientUnits="userSpaceOnUse">
<stop offset="0.26826" stop-color="#A62846"/>
<stop offset="0.743707" stop-color="#FE67AF" stop-opacity="0.44"/>
</linearGradient>
<linearGradient id="paint61_linear_1672_40" x1="3272.88" y1="1792.77" x2="3997.49" y2="1631.93" gradientUnits="userSpaceOnUse">
<stop offset="0.0833333" stop-color="#FE678B"/>
<stop offset="1" stop-color="#76A4CE"/>
</linearGradient>
<linearGradient id="paint62_linear_1672_40" x1="2453.57" y1="1158.98" x2="3178.18" y2="998.141" gradientUnits="userSpaceOnUse">
<stop offset="0.0833333" stop-color="#EB6B89"/>
<stop offset="0.718538" stop-color="#76A4CE" stop-opacity="0.65"/>
</linearGradient>
<linearGradient id="paint63_linear_1672_40" x1="2701.61" y1="1167.52" x2="2701.61" y2="2165.05" gradientUnits="userSpaceOnUse">
<stop stop-color="#A62846"/>
<stop offset="1" stop-color="#FE678B" stop-opacity="0"/>
</linearGradient>
<linearGradient id="paint64_linear_1672_40" x1="2700.39" y1="1051.53" x2="2700.39" y2="315.729" gradientUnits="userSpaceOnUse">
<stop stop-color="#603B44"/>
<stop offset="1" stop-color="#FE678B" stop-opacity="0"/>
</linearGradient>
<linearGradient id="paint65_linear_1672_40" x1="3697.93" y1="335.504" x2="2962.12" y2="335.504" gradientUnits="userSpaceOnUse">
<stop stop-color="#74293B"/>
<stop offset="1" stop-color="#FE678B" stop-opacity="0"/>
</linearGradient>
<linearGradient id="paint66_linear_1672_40" x1="3216.45" y1="1073.78" x2="3952.26" y2="1577.49" gradientUnits="userSpaceOnUse">
<stop offset="0.26826" stop-color="#A62846"/>
<stop offset="1" stop-color="#FE678B" stop-opacity="0"/>
</linearGradient>
<linearGradient id="paint67_linear_1672_40" x1="4119.46" y1="1584.99" x2="3193.6" y2="1567.37" gradientUnits="userSpaceOnUse">
<stop offset="0.0718" stop-color="#8483BA"/>
<stop offset="1" stop-color="#C52E49"/>
</linearGradient>
<linearGradient id="paint68_linear_1672_40" x1="3599.36" y1="2081.29" x2="3471.58" y2="1525.22" gradientUnits="userSpaceOnUse">
<stop offset="0.0718" stop-color="#8483BA"/>
<stop offset="1" stop-color="#C52E49"/>
</linearGradient>
<linearGradient id="paint69_linear_1672_40" x1="2790.97" y1="1378.89" x2="2663.19" y2="822.823" gradientUnits="userSpaceOnUse">
<stop offset="0.260417" stop-color="#8483BA"/>
<stop offset="0.917566" stop-color="#C52E49" stop-opacity="0.62"/>
</linearGradient>
<linearGradient id="paint70_linear_1672_40" x1="2803.5" y1="1381.17" x2="2803.5" y2="2278.97" gradientUnits="userSpaceOnUse">
<stop stop-color="#C53155"/>
<stop offset="1" stop-color="#44B6C6" stop-opacity="0.97"/>
</linearGradient>
<linearGradient id="paint71_linear_1672_40" x1="2939.59" y1="1633.41" x2="2939.59" y2="2345.96" gradientUnits="userSpaceOnUse">
<stop stop-color="#C53155"/>
<stop offset="1" stop-color="#44B6C6" stop-opacity="0.97"/>
</linearGradient>
<clipPath id="clip0_1672_40">
<rect width="6418" height="2463" fill="white"/>
</clipPath>
</defs>
</svg>
