<svg width="2595" height="2595" viewBox="0 0 2595 2595" fill="none" xmlns="http://www.w3.org/2000/svg">
<circle cx="1297.5" cy="1310.47" r="1284.54" fill="#4A5568"/>
<path d="M1804.02 1444.89L1804.02 1235.76L1517.69 1141.72L1804.02 1444.89Z" fill="url(#paint0_linear_1672_2)"/>
<path d="M1474.18 1444.89L1804.02 1618.93L1804.02 1444.28L1474.18 1444.89Z" fill="url(#paint1_linear_1672_2)"/>
<path d="M1901.08 624.561C1901.08 672.516 1895.16 715.351 1883.3 753.068C1871.45 790.785 1855.28 824.191 1834.81 853.287C1814.87 881.844 1791.7 906.36 1765.3 926.835C1738.9 947.31 1711.15 964.283 1682.06 977.753C1653.5 990.684 1624.4 1000.11 1594.77 1006.04C1565.67 1011.97 1538.19 1014.93 1512.33 1014.93L1804.32 1236.42H1481.55L1188.23 1014.93H953.043V804.794H1512.33C1538.73 802.639 1562.71 797.251 1584.26 788.63C1606.35 779.47 1625.21 767.347 1640.84 752.26C1657 737.173 1669.39 719.123 1678.02 698.109C1686.64 676.557 1690.95 652.041 1690.95 624.561V492.014C1690.95 480.16 1689.33 471.269 1686.1 465.342C1683.4 458.877 1679.63 454.297 1674.78 451.603C1670.47 448.37 1665.62 446.484 1660.23 445.945C1655.39 445.406 1650.81 445.137 1646.49 445.137H953.043V1074.12V1114.23V1284.69V1455.15V1591.51V1640.2L742.906 1826.41V1224.53V1174.39L803.33 1014.93L742.906 921.716V841.501V386.281V340.877C742.906 326.329 745.6 312.589 750.988 299.657C756.377 286.726 763.651 275.411 772.81 265.712C782.509 256.014 793.824 248.47 806.756 243.082C819.687 237.694 833.696 235 848.783 235H1646.49C1693.37 235 1732.97 243.621 1765.3 260.863C1797.63 277.566 1823.76 298.849 1843.7 324.712C1864.17 350.036 1878.72 377.516 1887.34 407.151C1896.5 436.785 1901.08 464.534 1901.08 490.397V624.561Z" fill="#FE678B"/>
<path d="M1008.24 895.429L802.943 1017.43L744.839 1170.46L954.01 1017.43L1008.24 895.429Z" fill="url(#paint2_linear_1672_2)"/>
<path d="M742.906 1174.35L953.471 1015.92V1639.59L742.906 1826.09V1174.35Z" fill="url(#paint3_linear_1672_2)"/>
<path d="M954 804.394L742.914 921.719L742.914 462.186L954 323.166L954 804.394Z" fill="url(#paint4_linear_1672_2)"/>
<path d="M1542.28 235.906L1657.05 446.104L1197.45 446.104L1059.77 235.906L1542.28 235.906Z" fill="url(#paint5_linear_1672_2)"/>
<path d="M1512.99 1013.99L1517 1236.59H1803.77L1512.99 1013.99Z" fill="url(#paint6_linear_1672_2)"/>
<path d="M1804.88 1445.1L1631.39 1261.01L1474.18 1445.1L1804.88 1445.1Z" fill="url(#paint7_linear_1672_2)"/>
<path d="M1474.18 1647.01L1610.63 1516.46L1474.18 1444.88L1474.18 1647.01Z" fill="url(#paint8_linear_1672_2)"/>
<path d="M802.939 1017.47L1008.23 895.44L954.078 804.418L742.899 922.56L802.939 1017.47Z" fill="url(#paint9_linear_1672_2)"/>
<path d="M818.695 1370.51L1043.18 1189.45V1724.21L827.117 1918.62L818.695 1370.51Z" fill="url(#paint10_linear_1672_2)"/>
<path d="M950.656 1486.94L1132.27 1335.35V1795.73L950.656 1973.02V1486.94Z" fill="url(#paint11_linear_1672_2)"/>
<path d="M1015.31 1626.27L1229.98 1492.51V2019.08L1015.31 2176.54V1626.27Z" fill="url(#paint12_linear_1672_2)"/>
<path d="M1122.08 1772.59L1336.75 1638.83V2165.4L1122.08 2322.86V1772.59Z" fill="url(#paint13_linear_1672_2)"/>
<path d="M1276.29 1878.16L1442.37 1761.4V2221.05L1276.29 2358.51V1878.16Z" fill="url(#paint14_linear_1672_2)"/>
<path d="M1410.75 1964.05L1564.97 1868.16V2245.63L1410.75 2358.5V1964.05Z" fill="url(#paint15_linear_1672_2)"/>
<path d="M1541.24 2049.94L1675.69 1974.93V2270.21L1541.24 2358.5V2049.94Z" fill="url(#paint16_linear_1672_2)"/>
<path d="M1640.12 2113.56L1758.75 2054.02V2288.41L1640.12 2358.5V2113.56Z" fill="url(#paint17_linear_1672_2)"/>
<path d="M1731.05 2224.9L1795.7 2192.45V2320.19L1731.05 2358.4V2224.9Z" fill="url(#paint18_linear_1672_2)"/>
<path d="M1786.41 2248.28L1841.36 2220.7V2329.27L1786.41 2361.74V2248.28Z" fill="url(#paint19_linear_1672_2)"/>
<path d="M1829.91 2289.05L1864.83 2271.52V2340.52L1829.91 2361.16V2289.05Z" fill="url(#paint20_linear_1672_2)"/>
<defs>
<linearGradient id="paint0_linear_1672_2" x1="1974.53" y1="1593.17" x2="1527.01" y2="988.702" gradientUnits="userSpaceOnUse">
<stop offset="0.26826" stop-color="#A62846"/>
<stop offset="0.743707" stop-color="#FE67AF" stop-opacity="0.44"/>
</linearGradient>
<linearGradient id="paint1_linear_1672_2" x1="1312.16" y1="1523.73" x2="1900.67" y2="1393.11" gradientUnits="userSpaceOnUse">
<stop offset="0.0833333" stop-color="#FE678B"/>
<stop offset="1" stop-color="#76A4CE"/>
</linearGradient>
<linearGradient id="paint2_linear_1672_2" x1="646.731" y1="1008.98" x2="1235.24" y2="878.357" gradientUnits="userSpaceOnUse">
<stop offset="0.0833333" stop-color="#EB6B89"/>
<stop offset="0.718538" stop-color="#76A4CE" stop-opacity="0.65"/>
</linearGradient>
<linearGradient id="paint3_linear_1672_2" x1="848.189" y1="1015.92" x2="848.189" y2="1826.09" gradientUnits="userSpaceOnUse">
<stop stop-color="#A62846"/>
<stop offset="1" stop-color="#FE678B" stop-opacity="0"/>
</linearGradient>
<linearGradient id="paint4_linear_1672_2" x1="847.194" y1="921.719" x2="847.194" y2="324.117" gradientUnits="userSpaceOnUse">
<stop stop-color="#603B44"/>
<stop offset="1" stop-color="#FE678B" stop-opacity="0"/>
</linearGradient>
<linearGradient id="paint5_linear_1672_2" x1="1657.38" y1="340.186" x2="1059.77" y2="340.186" gradientUnits="userSpaceOnUse">
<stop stop-color="#74293B"/>
<stop offset="1" stop-color="#FE678B" stop-opacity="0"/>
</linearGradient>
<linearGradient id="paint6_linear_1672_2" x1="1266.33" y1="939.793" x2="1863.93" y2="1348.89" gradientUnits="userSpaceOnUse">
<stop offset="0.26826" stop-color="#A62846"/>
<stop offset="1" stop-color="#FE678B" stop-opacity="0"/>
</linearGradient>
<linearGradient id="paint7_linear_1672_2" x1="1999.72" y1="1354.98" x2="1247.76" y2="1340.67" gradientUnits="userSpaceOnUse">
<stop offset="0.0718" stop-color="#8483BA"/>
<stop offset="1" stop-color="#C52E49"/>
</linearGradient>
<linearGradient id="paint8_linear_1672_2" x1="1577.32" y1="1758.07" x2="1473.53" y2="1306.44" gradientUnits="userSpaceOnUse">
<stop offset="0.0718" stop-color="#8483BA"/>
<stop offset="1" stop-color="#C52E49"/>
</linearGradient>
<linearGradient id="paint9_linear_1672_2" x1="920.764" y1="1187.59" x2="816.983" y2="735.971" gradientUnits="userSpaceOnUse">
<stop offset="0.260417" stop-color="#8483BA"/>
<stop offset="0.917566" stop-color="#C52E49" stop-opacity="0.62"/>
</linearGradient>
<linearGradient id="paint10_linear_1672_2" x1="930.937" y1="1189.45" x2="930.937" y2="1918.62" gradientUnits="userSpaceOnUse">
<stop stop-color="#C53155"/>
<stop offset="1" stop-color="#44B6C6" stop-opacity="0.97"/>
</linearGradient>
<linearGradient id="paint11_linear_1672_2" x1="1041.47" y1="1394.3" x2="1041.47" y2="1973.02" gradientUnits="userSpaceOnUse">
<stop stop-color="#C53155"/>
<stop offset="1" stop-color="#44B6C6" stop-opacity="0.97"/>
</linearGradient>
<linearGradient id="paint12_linear_1672_2" x1="1122.65" y1="1492.51" x2="1122.65" y2="2176.54" gradientUnits="userSpaceOnUse">
<stop stop-color="#C53155"/>
<stop offset="1" stop-color="#44B6C6" stop-opacity="0.97"/>
</linearGradient>
<linearGradient id="paint13_linear_1672_2" x1="1229.41" y1="1638.83" x2="1229.41" y2="2322.86" gradientUnits="userSpaceOnUse">
<stop stop-color="#C53155"/>
<stop offset="1" stop-color="#44B6C6" stop-opacity="0.97"/>
</linearGradient>
<linearGradient id="paint14_linear_1672_2" x1="1359.33" y1="1761.4" x2="1359.33" y2="2358.51" gradientUnits="userSpaceOnUse">
<stop stop-color="#C53155"/>
<stop offset="1" stop-color="#44B6C6" stop-opacity="0.97"/>
</linearGradient>
<linearGradient id="paint15_linear_1672_2" x1="1487.86" y1="1868.16" x2="1487.86" y2="2358.51" gradientUnits="userSpaceOnUse">
<stop stop-color="#C53155"/>
<stop offset="1" stop-color="#44B6C6" stop-opacity="0.97"/>
</linearGradient>
<linearGradient id="paint16_linear_1672_2" x1="1608.47" y1="1974.93" x2="1608.47" y2="2358.5" gradientUnits="userSpaceOnUse">
<stop stop-color="#C53155"/>
<stop offset="1" stop-color="#44B6C6" stop-opacity="0.97"/>
</linearGradient>
<linearGradient id="paint17_linear_1672_2" x1="1699.43" y1="2054.02" x2="1699.43" y2="2358.5" gradientUnits="userSpaceOnUse">
<stop stop-color="#C53155"/>
<stop offset="1" stop-color="#44B6C6" stop-opacity="0.97"/>
</linearGradient>
<linearGradient id="paint18_linear_1672_2" x1="1763.37" y1="2192.45" x2="1763.37" y2="2358.4" gradientUnits="userSpaceOnUse">
<stop stop-color="#C53155"/>
<stop offset="1" stop-color="#44B6C6" stop-opacity="0.97"/>
</linearGradient>
<linearGradient id="paint19_linear_1672_2" x1="1813.89" y1="2220.7" x2="1813.89" y2="2361.74" gradientUnits="userSpaceOnUse">
<stop stop-color="#C53155"/>
<stop offset="1" stop-color="#44B6C6" stop-opacity="0.97"/>
</linearGradient>
<linearGradient id="paint20_linear_1672_2" x1="1847.37" y1="2271.52" x2="1847.37" y2="2361.16" gradientUnits="userSpaceOnUse">
<stop stop-color="#C53155"/>
<stop offset="1" stop-color="#44B6C6" stop-opacity="0.97"/>
</linearGradient>
</defs>
</svg>
